<?xml version="1.0" encoding="UTF-8" standalone="no"?>
<!DOCTYPE svg PUBLIC "-//W3C//DTD SVG 1.1//EN" "http://www.w3.org/Graphics/SVG/1.1/DTD/svg11.dtd">
<svg width="100%" height="100%" viewBox="0 0 360 360" version="1.1" xmlns="http://www.w3.org/2000/svg" xmlns:xlink="http://www.w3.org/1999/xlink" xml:space="preserve" xmlns:serif="http://www.serif.com/" style="fill-rule:evenodd;clip-rule:evenodd;stroke-linejoin:round;stroke-miterlimit:2;">
    <g id="page" transform="matrix(1,0,0,1,-11.6919,-2)">
        <g transform="matrix(1.68846,0,0,1.68846,96.6854,84.5128)">
            <clipPath id="_clip1">
                <rect x="0.008" y="0.046" width="40.947" height="58.954" clip-rule="nonzero"/>
            </clipPath>
            <g clip-path="url(#_clip1)">
                <g transform="matrix(1,0,0,1,0,-47.6637)">
                    <path d="M2.819,57.918L2.819,56.887C2.819,54.208 4.958,52.147 7.505,52.147C8.014,52.147 8.625,52.25 9.135,52.456C9.848,50.292 12.394,48.746 15.348,48.746C18.302,48.746 20.849,50.292 21.46,52.456C21.969,52.25 22.479,52.147 22.988,52.147C25.636,52.147 27.674,54.311 27.775,56.887L27.775,57.918L2.819,57.918Z" style="fill:rgb(198,154,128);"/>
                </g>
                <g transform="matrix(1,0,0,1,0,8.39913)">
                    <path d="M15.348,37.822C12.394,37.822 9.644,36.482 7.81,34.215C4.245,30.299 2.106,23.497 1.393,13.81L1.189,12.779L29.303,12.779L29.202,13.913C28.387,23.6 26.248,30.402 22.784,34.318C21.052,36.482 18.302,37.822 15.348,37.822Z" style="fill:rgb(207,151,117);"/>
                </g>
                <g>
                    <g>
                        <g>
                            <g>
                                <clipPath id="_clip2">
                                    <path d="M1.189,21.178L1.087,20.148C0.884,16.128 0.985,12.728 0.985,11.079L0.985,10.048L29.303,10.048L29.303,11.079C29.405,12.728 29.507,16.025 29.202,20.148L29.202,21.178L1.189,21.178Z"/>
                                </clipPath>
                                <g clip-path="url(#_clip2)">
                                    <g transform="matrix(1,0,0,1,0,-27.7738)">
                                        <clipPath id="_clip3">
                                            <rect x="0" y="27.774" width="41" height="59" clip-rule="nonzero"/>
                                        </clipPath>
                                        <g clip-path="url(#_clip3)">
                                            <rect x="-4.04" y="32.822" width="38.445" height="21.13" style="fill:rgb(253,233,218);"/>
                                        </g>
                                    </g>
                                </g>
                            </g>
                            <g transform="matrix(1,0,0,1,0,0.04598)">
                                <clipPath id="_clip4">
                                    <path d="M32.359,31.232C31.239,31.232 30.22,30.923 29.303,30.407C30.118,26.491 30.526,22.472 30.628,18.35C34.091,17.319 37.656,19.38 38.675,22.884C39.694,26.388 37.656,29.995 34.193,31.026C33.582,31.232 32.97,31.232 32.359,31.232ZM28.387,20.102L2.208,20.102C2.004,16.082 2.106,12.682 2.106,11.136L28.489,11.136C28.59,12.785 28.692,16.082 28.387,20.102ZM22.173,41.95C19.015,45.763 13.413,46.278 9.644,43.083C9.236,42.774 8.829,42.362 8.523,41.95C4.449,37.415 2.921,29.171 2.411,22.163L28.387,22.163C27.775,29.171 26.248,37.415 22.173,41.95ZM16.876,56.79L13.82,56.79L13.82,47.102C14.33,47.206 14.839,47.206 15.348,47.206C15.857,47.206 16.367,47.102 16.876,47.102L16.876,56.79ZM7.607,5.364C8.014,5.364 8.422,5.468 8.829,5.674C9.033,5.777 9.338,5.777 9.644,5.674C9.848,5.571 10.051,5.364 10.153,5.055C10.663,3.2 12.903,1.964 15.348,1.964C17.793,1.964 20.034,3.2 20.543,4.952C20.747,5.468 21.256,5.777 21.867,5.571C22.275,5.468 22.682,5.364 23.09,5.364C25.127,5.364 26.757,7.013 26.859,9.075L3.838,9.075C3.838,7.013 5.569,5.364 7.607,5.364ZM32.359,16.082C31.748,16.082 31.239,16.185 30.628,16.289C30.628,12.785 30.526,10.414 30.526,10.105C30.526,9.59 30.017,9.178 29.507,9.178L28.794,9.178C28.794,5.983 26.146,3.406 22.988,3.406C22.682,3.406 22.377,3.406 22.071,3.509C20.645,1.242 17.997,-0.098 15.348,0.006C12.598,-0.098 10.051,1.242 8.625,3.509C8.32,3.406 7.912,3.406 7.607,3.406C4.449,3.406 1.902,5.983 1.8,9.178L1.189,9.178C0.68,9.178 0.17,9.59 0.17,10.105C0.069,11.033 -1.459,34.014 6.995,43.392C8.32,44.835 9.95,45.969 11.783,46.69L11.783,56.893L6.486,56.893C5.875,56.893 5.467,57.305 5.467,57.923C5.467,58.542 5.875,58.954 6.486,58.954L25.331,58.954C25.942,58.954 26.349,58.542 26.349,57.923C26.349,57.305 25.942,56.893 25.331,56.893L19.015,56.893L19.015,46.69C20.849,46.072 22.479,44.938 23.803,43.392C26.248,40.61 27.877,36.797 28.896,32.571C33.174,34.53 38.267,32.571 40.203,28.243C42.138,23.915 40.203,18.762 35.925,16.804C34.702,16.289 33.48,16.082 32.359,16.082Z"/>
                                </clipPath>
                                <g clip-path="url(#_clip4)">
                                    <rect x="0" y="-0.046" width="41" height="59" style="fill:rgb(35,21,20);"/>
                                </g>
                            </g>
                        </g>
                    </g>
                </g>
            </g>
        </g>
        <g transform="matrix(1.68846,0,0,1.68846,-15.1515,89.5781)">
            <g transform="matrix(1,0,0,1,0,-48.1084)">
                <path d="M142.737,57.87L143.453,56.431C144.168,54.89 146.109,52.218 150.708,52.218C152.445,52.218 154.183,52.527 155.92,53.143C156.839,53.451 157.759,53.657 158.679,53.76C159.496,53.862 160.212,53.554 160.723,52.938C161.131,52.321 161.336,51.602 161.234,50.883L161.131,49.136L162.664,49.855C163.891,50.369 164.81,51.294 165.526,52.424C166.343,53.862 166.65,55.507 166.343,57.048L166.241,57.972L142.737,57.87Z" style="fill:rgb(253,233,218);"/>
            </g>
            <g transform="matrix(-0.125511,-0.992092,0.992092,-0.125511,155.676,196.222)">
                <path d="M141.013,9.948L170.324,9.948L167.707,30.63L139.32,23.331L141.013,9.948Z" style="fill:rgb(198,154,128);"/>
            </g>
            <g>
                <clipPath id="_clip5">
                    <rect x="141.008" y="0.087" width="34.865" height="55.913" clip-rule="nonzero"/>
                </clipPath>
                <g clip-path="url(#_clip5)">
                    <g>
                        <g>
                            <g>
                                <clipPath id="_clip6">
                                    <path d="M144.168,25.996L142.124,9.761L167.058,9.761L165.015,25.996L144.168,25.996Z"/>
                                </clipPath>
                                <g clip-path="url(#_clip6)">
                                    <g transform="matrix(1,0,0,1,0,-23.2422)">
                                        <clipPath id="_clip7">
                                            <rect x="141" y="23.242" width="35" height="57" clip-rule="nonzero"/>
                                        </clipPath>
                                        <g clip-path="url(#_clip7)">
                                            <rect x="137.124" y="28.004" width="34.934" height="26.235" style="fill:rgb(198,154,128);"/>
                                        </g>
                                    </g>
                                </g>
                            </g>
                            <g transform="matrix(1,0,0,1,0,-2.91298)">
                                <clipPath id="_clip8">
                                    <path d="M166.547,40.726C165.934,40.726 165.219,40.623 164.606,40.418L166.343,26.443L166.547,26.443C170.431,26.854 173.394,30.348 172.985,34.252C172.679,37.746 170.022,40.418 166.547,40.726ZM164.095,27.882L145.088,27.882L143.248,13.702L165.934,13.702L164.095,27.882ZM160.416,56.961L148.766,56.961L145.292,29.937L163.788,29.937L160.416,56.961ZM150.708,7.948C152.343,7.948 153.978,8.256 155.613,8.77C156.635,9.181 157.657,9.386 158.679,9.386C159.803,9.489 160.825,8.975 161.54,8.153C162.153,7.331 162.358,6.407 162.255,5.482C163.277,5.996 164.095,6.715 164.708,7.639C165.423,8.873 165.628,10.208 165.423,11.544L144.27,11.544C144.985,10.208 146.62,7.948 150.708,7.948ZM166.547,24.388L167.978,12.777C167.978,12.366 167.774,11.955 167.365,11.75C167.671,10.003 167.263,8.153 166.343,6.612C165.117,4.763 163.175,3.529 161.131,3.016C160.62,2.913 160.007,3.324 160.007,3.941L160.007,4.249C160.314,5.174 160.314,6.098 159.905,7.023C159.599,7.331 159.088,7.537 158.577,7.434C157.759,7.434 156.942,7.229 156.226,6.92C154.387,6.304 152.547,5.996 150.606,5.893C145.292,5.893 142.839,9.284 142.022,11.544C141.409,11.544 141,11.955 141,12.572L141,12.674L146.723,57.988C146.825,58.502 147.234,58.913 147.744,58.913L161.234,58.913C161.744,58.913 162.153,58.502 162.255,57.988L164.197,42.472C169.102,43.808 174.212,41.034 175.54,36.102C176.869,31.17 174.109,26.032 169.204,24.696C168.387,24.491 167.467,24.388 166.547,24.388Z"/>
                                </clipPath>
                                <g clip-path="url(#_clip8)">
                                    <rect x="141" y="2.913" width="35" height="57" style="fill:rgb(35,21,20);"/>
                                </g>
                            </g>
                        </g>
                    </g>
                </g>
            </g>
        </g>
        <g transform="matrix(1.68846,0,0,1.68846,-259.989,236.11)">
            <clipPath id="_clip9">
                <rect x="276.008" y="0.077" width="54.879" height="41.923" clip-rule="nonzero"/>
            </clipPath>
            <g clip-path="url(#_clip9)">
                <g>
                    <g transform="matrix(-0.416871,-0.908966,0.908966,-0.416871,405.51,320.174)">
                        <path d="M304.959,2.345L313.324,2.345L293.998,44.484L288.583,38.051L304.959,2.345Z" style="fill:rgb(253,233,218);"/>
                    </g>
                    <g>
                        <g>
                            <clipPath id="_clip10">
                                <path d="M286.154,33.369C282.667,33.369 280.923,28.95 280.718,27.204C280.308,21.45 280.615,6.55 280.718,2.029L280.718,1.002L319.487,1.002L319.487,2.029C319.59,6.448 319.897,21.45 319.487,27.204C319.385,28.95 317.538,33.369 314.051,33.369L286.154,33.369Z"/>
                            </clipPath>
                            <g clip-path="url(#_clip10)">
                                <g transform="matrix(1,0,0,1,0,-24.6294)">
                                    <clipPath id="_clip11">
                                        <rect x="276" y="24.629" width="55" height="42" clip-rule="nonzero"/>
                                    </clipPath>
                                    <g clip-path="url(#_clip11)">
                                        <rect x="275.511" y="20.631" width="49.184" height="42.367" style="fill:rgb(185,136,117);"/>
                                    </g>
                                </g>
                            </g>
                        </g>
                        <g transform="matrix(1,0,0,1,0,-16.9229)">
                            <clipPath id="_clip12">
                                <path d="M320.718,41.763C320.923,37.037 320.821,29.639 320.718,24.398C325.538,24.604 329.231,28.714 328.923,33.543C328.718,37.961 325.128,41.558 320.718,41.763ZM318.564,44.127C318.461,45.668 316.821,49.264 314.154,49.264L286.154,49.264C283.487,49.264 281.949,45.668 281.744,44.127C281.333,38.372 281.641,23.165 281.744,19.055L318.564,19.055C318.667,23.165 318.974,38.372 318.564,44.127ZM321.744,51.319L319.18,56.868L281.231,56.868L278.564,51.319L321.744,51.319ZM320.718,22.343C320.718,19.877 320.615,18.233 320.615,18.028C320.615,17.411 320.205,17 319.59,17L280.718,17C280.103,17 279.692,17.411 279.692,18.028C279.692,18.85 279.18,37.55 279.692,44.229C279.897,46.079 280.718,47.826 281.949,49.264L277.026,49.264C276.41,49.264 276,49.675 276,50.292C276,50.395 276,50.6 276.103,50.703L279.692,58.306C279.897,58.717 280.205,58.923 280.615,58.923L319.897,58.923C320.308,58.923 320.615,58.717 320.821,58.306L324.41,50.703C324.615,50.189 324.41,49.572 323.897,49.367C323.692,49.264 323.487,49.264 323.385,49.264L318.359,49.264C319.59,47.826 320.41,46.079 320.615,44.229L320.615,43.818C326.564,43.613 331.18,38.578 330.872,32.618C330.667,27.07 326.256,22.651 320.718,22.343Z"/>
                            </clipPath>
                            <g clip-path="url(#_clip12)">
                                <rect x="276" y="16.923" width="55" height="42" style="fill:rgb(35,21,20);"/>
                            </g>
                        </g>
                    </g>
                </g>
            </g>
        </g>
        <g transform="matrix(1.68846,0,0,1.68846,86.0534,31.0366)">
            <g transform="matrix(-0.14078,-0.990041,0.990041,-0.14078,22.9175,176.143)">
                <path d="M14.423,-3.229L25.299,-3.229L22.31,17.79L11.866,14.758L14.423,-3.229Z" style="fill:rgb(198,154,128);"/>
            </g>
            <g transform="matrix(0,-1,1,0,-23.6382,131.518)">
                <path d="M14.029,38.164L17.549,38.164L22.001,61.742L14.029,61.742L14.029,38.164Z" style="fill:rgb(198,154,128);"/>
            </g>
            <g transform="matrix(1,0,0,1,8.29962,122.459)">
                <path d="M19.903,16.461C18.372,16.668 16.943,17.496 16.025,18.739C15.412,19.464 14.902,20.292 14.596,21.224C15.412,20.395 16.433,19.671 17.556,19.153C18.883,18.428 19.903,17.911 20.414,16.565C20.21,16.565 20.006,16.461 19.903,16.461ZM16.535,25.261C16.739,25.261 16.841,25.365 17.046,25.365C18.577,25.158 20.006,24.329 20.924,23.087C21.639,22.259 22.251,21.224 22.455,20.085C21.639,20.913 20.72,21.638 19.597,22.052C18.168,22.776 17.046,23.501 16.535,25.261ZM7.859,29.092L5.41,11.906L31.539,11.906L29.09,29.092L7.859,29.092Z" style="fill:rgb(185,136,117);"/>
            </g>
            <g transform="matrix(1,0,0,1,8.29962,78.4585)">
                <rect x="1.021" y="39.031" width="35.01" height="6.936" style="fill:rgb(234,191,165);"/>
            </g>
            <g transform="matrix(1,0,0,1,8.29962,108.456)">
                <g>
                    <g transform="matrix(1,0,0,1,0,-13.1224)">
                        <clipPath id="_clip13">
                            <path d="M5.41,39.031L3.981,29.092L32.968,29.092L31.539,39.031L5.41,39.031Z"/>
                        </clipPath>
                        <g clip-path="url(#_clip13)">
                            <rect x="-1.019" y="24.092" width="38.988" height="19.939" style="fill:rgb(198,154,128);"/>
                        </g>
                    </g>
                    <g transform="matrix(1,0,0,1,0,0.02588)">
                        <clipPath id="_clip14">
                            <path d="M35.01,14.908L2.041,14.908L2.041,10.042L35.01,10.042L35.01,14.908ZM30.621,24.847L6.328,24.847L5.206,16.979L31.743,16.979L30.621,24.847ZM28.171,42.033L8.778,42.033L6.634,26.918L30.417,26.918L28.171,42.033ZM26.742,52.8L10.207,52.8L8.982,44.207L27.865,44.207L26.742,52.8ZM7.247,6.315L28.783,2.278L28.783,7.972L7.247,7.972L7.247,6.315ZM34.908,7.972L30.723,7.972L30.723,1.035C30.723,0.414 30.314,0 29.702,0L29.498,0L6.022,4.452C5.512,4.555 5.206,4.969 5.206,5.487L5.206,7.972L2.041,7.972C0.919,7.972 0,8.904 0,10.042L0,15.012C0,16.151 0.919,17.082 2.041,17.082L3.164,17.082L8.37,54.042C8.472,54.56 8.88,54.974 9.39,54.974L27.559,54.974C28.069,54.974 28.477,54.56 28.579,54.042L33.785,16.979L34.908,16.979C36.03,16.979 36.949,16.047 36.949,14.908L36.949,10.042C36.949,8.904 36.03,7.972 34.908,7.972Z"/>
                        </clipPath>
                        <g clip-path="url(#_clip14)">
                            <rect x="0" y="-0.026" width="37" height="55" style="fill:rgb(35,21,20);"/>
                        </g>
                    </g>
                </g>
            </g>
            <g transform="matrix(1,0,0,1,8.29962,121.701)">
                <path d="M21.537,16.805C20.108,15.562 17.25,16.494 15.208,18.875C13.167,21.257 12.657,24.259 14.188,25.501C15.004,19.911 20.618,21.774 21.537,16.805Z" style="fill:rgb(253,233,218);"/>
            </g>
            <g transform="matrix(1,0,0,1,8.29962,124.873)">
                <path d="M15.412,23.365C16.841,24.607 19.699,23.675 21.741,21.294C23.782,18.913 24.292,15.91 22.761,14.668C21.843,19.638 16.229,17.774 15.412,23.365Z" style="fill:rgb(253,233,218);"/>
            </g>
        </g>
    </g>
</svg>
