<svg width="31" height="38" viewBox="0 0 31 38" fill="none" xmlns="http://www.w3.org/2000/svg">
<path fill-rule="evenodd" clip-rule="evenodd" d="M27.0669 10.8173H2.2261V7.61203H28.7065V10.8173H27.0669ZM25.1812 17.3643H5.66934L4.76753 12.1813H26.083L25.1812 17.3643ZM23.2137 28.6852H7.637L5.91536 18.7283H25.0173L23.2137 28.6852ZM22.0659 35.7778H8.7847L7.8009 30.1174H22.9677L22.0659 35.7778ZM6.4072 5.1569L23.7056 2.49718V6.24807H6.4072V5.1569ZM28.6245 6.24807H25.2632V1.67881C25.2632 1.26962 24.9353 0.996826 24.4434 0.996826C24.3614 0.996826 24.3614 0.996826 24.2794 0.996826L5.42341 3.92934C5.0135 3.99754 4.76755 4.27033 4.76755 4.61132V6.24807H2.22608C1.32427 6.24807 0.586426 6.86185 0.586426 7.61203V10.8855C0.586426 11.6357 1.32427 12.2495 2.22608 12.2495H3.12789L7.30901 36.5962C7.391 36.9372 7.71893 37.21 8.12884 37.21H22.7218C23.1317 37.21 23.4596 36.9372 23.5416 36.5962L27.7227 12.1813H28.6245C29.5263 12.1813 30.2642 11.5675 30.2642 10.8173V7.61203C30.2642 6.86185 29.5263 6.24807 28.6245 6.24807Z" fill="#A09186"/>
</svg>
