<?xml version="1.0" encoding="UTF-8"?>
<svg width="360px" height="360px" viewBox="0 0 360 360" version="1.1" xmlns="http://www.w3.org/2000/svg" xmlns:xlink="http://www.w3.org/1999/xlink">
    <title>illustration</title>
    <defs>
        <path d="M0,359.622 L0,-3.55271368e-15 L359.57952,-3.55271368e-15 L359.57952,359.622 L0,359.622 Z M177.30216,315.8712 C188.95824,317.88576 207.70272,319.19328 228.83976,319.19328 C264.19248,319.19328 292.85064,315.53712 292.85064,311.02704 C292.85064,307.47096 275.0364,304.44624 250.17048,303.3252 C259.57656,296.64288 265.71312,285.66 265.71312,273.2436 C265.71312,252.87768 249.20352,236.36952 228.83904,236.36952 C208.47384,236.36952 191.96496,252.87768 191.96496,273.2436 C191.96496,285.66 198.10152,296.64288 207.5076,303.3252 C195.3252,303.87456 184.83264,304.88112 177.30216,306.18288 C168.87384,304.72632 156.74112,303.63912 142.67664,303.1488 C146.2968,299.26728 148.51224,294.05808 148.51224,288.3312 C148.51224,288.15552 148.51008,287.98056 148.50576,287.8056 C148.2264,276.04872 138.60792,266.60232 126.78336,266.60232 C114.78168,266.60232 105.05448,276.33168 105.05448,288.3312 C105.05448,294.0264 107.24472,299.20968 110.8296,303.084 C82.67976,303.94224 61.75296,307.17288 61.75296,311.02704 C61.75296,315.53712 90.41112,319.19328 125.76384,319.19328 C146.90088,319.19328 165.64536,317.88576 177.30216,315.8712 Z M134.90424,302.9436 C132.57576,302.90112 130.20552,302.87448 127.80216,302.86512 L127.80216,293.07528 C128.3868,292.95144 128.93112,292.72032 129.41712,292.4064 L137.85912,300.84912 C136.95552,301.64904 135.96624,302.35248 134.90424,302.9436 Z M118.60488,302.9112 C113.51016,300.04776 110.06856,294.5916 110.06856,288.3312 C110.06856,279.44424 117.0072,272.17512 125.76384,271.64736 L125.76384,302.8608 C123.34248,302.8608 120.95568,302.87808 118.60488,302.9112 Z M227.10888,301.55616 C212.24808,300.66264 200.47464,288.3276 200.47464,273.2436 C200.47464,258.15888 212.24808,245.82456 227.10888,244.93176 L227.10888,301.55616 Z M230.5692,301.55616 L230.5692,281.29464 C231.55992,281.08296 232.48368,280.69128 233.3088,280.15848 L247.63536,294.48576 C243.16416,298.44432 237.4344,301.01472 231.12288,301.51728 C231.1164,301.518 231.10992,301.518 231.10416,301.51872 L231.102,301.51872 C230.92488,301.53312 230.74704,301.54536 230.5692,301.55616 Z M139.30056,299.40768 L130.85856,290.9664 C131.17248,290.47896 131.40216,289.9332 131.52672,289.34928 L143.4672,289.34928 C143.4456,289.71 143.41248,290.06784 143.36856,290.42136 C143.36784,290.4228 143.36784,290.4228 143.36784,290.42424 C143.36712,290.43072 143.3664,290.4372 143.36568,290.44368 C143.36496,290.44512 143.36496,290.44584 143.36496,290.44656 C143.36424,290.45304 143.36352,290.46024 143.3628,290.46672 C143.3628,290.46744 143.36208,290.46888 143.36208,290.46888 C143.35992,290.4876 143.35776,290.5056 143.35488,290.5236 C143.35488,290.5272 143.35416,290.53152 143.35344,290.53512 C143.35344,290.53872 143.35272,290.54304 143.352,290.54664 C143.35128,290.55096 143.35056,290.556 143.35056,290.56032 C143.34984,290.56392 143.34912,290.5668 143.34912,290.5704 C143.3484,290.57616 143.34768,290.5812 143.34696,290.58696 C143.34624,290.58912 143.34624,290.59128 143.34624,290.59344 C143.3448,290.60064 143.34408,290.60712 143.34264,290.61504 C143.34264,290.61576 143.34264,290.61648 143.34264,290.61792 C142.88472,293.96592 141.43536,296.99712 139.30056,299.40768 Z M250.08048,292.04136 L235.7532,277.71192 C236.286,276.88896 236.67768,275.96304 236.88936,274.97232 L257.15088,274.97232 C256.84056,280.14912 255.1392,284.95368 252.41688,289.0152 C252.41616,289.01664 252.41544,289.01808 252.41472,289.01952 C252.40968,289.02672 252.40464,289.03392 252.3996,289.04112 C252.396,289.0476 252.39168,289.05336 252.38808,289.05912 C252.3852,289.06272 252.38304,289.06632 252.38088,289.06992 C251.67888,290.11176 250.91064,291.1032 250.08048,292.04064 L250.08048,292.04136 Z M143.4672,287.3124 L131.52672,287.3124 C131.40216,286.7292 131.17248,286.18344 130.85712,285.69744 L139.30056,277.25472 C141.70176,279.96696 143.23536,283.464 143.4672,287.3124 Z M129.4164,284.256 C128.9304,283.94208 128.38608,283.7124 127.80216,283.58712 L127.80216,271.64736 C128.98152,271.71864 130.12776,271.9116 131.22864,272.21472 C133.71984,272.90088 135.97848,274.14936 137.85984,275.81472 L129.4164,284.256 Z M257.15088,271.51416 L236.88936,271.51416 C236.67768,270.52272 236.286,269.5968 235.7532,268.77168 L250.07976,254.44584 C252.84744,257.57064 254.93544,261.30888 256.11408,265.43304 C256.1148,265.43448 256.11552,265.43664 256.11624,265.43808 C256.1184,265.44816 256.122,265.45968 256.12488,265.46904 C256.1256,265.47336 256.12704,265.47696 256.12776,265.48056 C256.12848,265.482 256.12848,265.48344 256.1292,265.48416 C256.67784,267.41736 257.02632,269.43552 257.15088,271.51416 Z M233.30736,266.328 C232.48368,265.7952 231.55776,265.40496 230.5692,265.19184 L230.5692,244.93176 C237.04848,245.322 242.9424,247.88736 247.5288,251.90784 C247.53168,251.91 247.53456,251.91288 247.53816,251.91576 C247.5432,251.92008 247.54896,251.92512 247.554,251.93016 C247.58064,251.9532 247.60728,251.97696 247.63392,252.00072 L233.30736,266.328 Z" id="path-1"></path>
        <ellipse id="path-3" cx="22.5" cy="2" rx="22.5" ry="2"></ellipse>
        <filter x="-16.7%" y="-187.5%" width="133.3%" height="475.0%" filterUnits="objectBoundingBox" id="filter-4">
            <feOffset dx="0" dy="0" in="SourceAlpha" result="shadowOffsetOuter1"></feOffset>
            <feGaussianBlur stdDeviation="2.5" in="shadowOffsetOuter1" result="shadowBlurOuter1"></feGaussianBlur>
            <feColorMatrix values="0 0 0 0 0.309803922   0 0 0 0 0.250980392   0 0 0 0 0.211764706  0 0 0 1 0" type="matrix" in="shadowBlurOuter1"></feColorMatrix>
        </filter>
        <ellipse id="path-5" cx="23" cy="1.5" rx="8" ry="1.5"></ellipse>
        <filter x="-9.4%" y="-50.0%" width="118.8%" height="200.0%" filterUnits="objectBoundingBox" id="filter-6">
            <feOffset dx="0" dy="0" in="SourceAlpha" result="shadowOffsetOuter1"></feOffset>
            <feGaussianBlur stdDeviation="0.5" in="shadowOffsetOuter1" result="shadowBlurOuter1"></feGaussianBlur>
            <feColorMatrix values="0 0 0 0 0.309803922   0 0 0 0 0.250980392   0 0 0 0 0.211764706  0 0 0 1 0" type="matrix" in="shadowBlurOuter1"></feColorMatrix>
        </filter>
        <path d="M1.54656,2.30328 C1.20456,2.30328 0.86472,2.2932 0.52704,2.27304 L0.52704,0.1188 C0.8676,0.1188 1.20744,0.11952 1.54656,0.12024 L1.54656,2.30328" id="path-7"></path>
        <radialGradient cx="0%" cy="373.829927%" fx="0%" fy="373.829927%" r="6277.93079%" gradientTransform="translate(0.000000,3.738299),scale(1.000000,0.466711),scale(1.000000,0.127600),translate(-0.000000,-3.738299)" id="radialGradient-9">
            <stop stop-color="#9C6C4E" offset="0%"></stop>
            <stop stop-color="#5B3323" offset="100%"></stop>
        </radialGradient>
        <path d="M16.66656,7.3188 C10.3608,7.3188 4.68216,4.63248 0.7128,0.342 C3.24792,0.26496 5.84568,0.20664 8.48808,0.1692 C10.62648,1.3716 13.05792,2.1168 15.64704,2.27304 C15.98472,2.2932 16.32456,2.30328 16.66656,2.30328 L16.66656,7.3188 M17.68536,2.27376 L17.68536,2.27304 C20.25216,2.11896 22.66272,1.38528 24.78744,0.2016 C24.7896,0.2016 24.78744,0.2016 24.7896,0.2016 C22.66416,1.386 20.25288,2.1204 17.68536,2.27376" id="path-10"></path>
        <radialGradient cx="62.027512%" cy="113.514602%" fx="62.027512%" fy="113.514602%" r="895.221551%" gradientTransform="translate(0.620275,1.135146),scale(0.296950,1.000000),scale(1.000000,0.127600),translate(-0.620275,-1.135146)" id="radialGradient-12">
            <stop stop-color="#9C6C4E" offset="0%"></stop>
            <stop stop-color="#5B3323" offset="100%"></stop>
        </radialGradient>
        <path d="M0.10656,7.3188 L0.10656,0.12024 C0.4464,0.12024 0.78696,0.12168 1.12536,0.12312 L1.12536,2.27376 C3.69288,2.1204 6.10416,1.386 8.2296,0.2016 C10.87344,0.24984 13.47048,0.31896 15.99984,0.4068 C12.03336,4.65984 6.38064,7.3188 0.10656,7.3188" id="path-13"></path>
        <radialGradient cx="-6.41478663%" cy="113.422685%" fx="-6.41478663%" fy="113.422685%" r="889.132827%" gradientTransform="translate(-0.064148,1.134227),scale(0.452931,1.000000),scale(1.000000,0.127600),translate(0.064148,-1.134227)" id="radialGradient-15">
            <stop stop-color="#624735" offset="0%"></stop>
            <stop stop-color="#38251B" offset="100%"></stop>
        </radialGradient>
        <ellipse id="path-16" cx="46" cy="2.5" rx="46" ry="2.5"></ellipse>
        <filter x="-3.7%" y="-120.0%" width="107.1%" height="340.0%" filterUnits="objectBoundingBox" id="filter-17">
            <feMorphology radius="0.5" operator="erode" in="SourceAlpha" result="shadowSpreadOuter1"></feMorphology>
            <feOffset dx="0" dy="0" in="shadowSpreadOuter1" result="shadowOffsetOuter1"></feOffset>
            <feGaussianBlur stdDeviation="2.5" in="shadowOffsetOuter1" result="shadowBlurOuter1"></feGaussianBlur>
            <feColorMatrix values="0 0 0 0 0.309803922   0 0 0 0 0.250980392   0 0 0 0 0.211764706  0 0 0 1 0" type="matrix" in="shadowBlurOuter1"></feColorMatrix>
        </filter>
        <ellipse id="path-18" cx="46" cy="1.5" rx="8" ry="1.5"></ellipse>
        <filter x="-9.4%" y="-50.0%" width="118.8%" height="200.0%" filterUnits="objectBoundingBox" id="filter-19">
            <feOffset dx="0" dy="0" in="SourceAlpha" result="shadowOffsetOuter1"></feOffset>
            <feGaussianBlur stdDeviation="0.5" in="shadowOffsetOuter1" result="shadowBlurOuter1"></feGaussianBlur>
            <feColorMatrix values="0 0 0 0 0.309803922   0 0 0 0 0.250980392   0 0 0 0 0.211764706  0 0 0 1 0" type="matrix" in="shadowBlurOuter1"></feColorMatrix>
        </filter>
        <path d="M21.52224,7.3764 C13.57344,7.3764 6.21216,4.86144 0.1908,0.5832 C6.86376,0.28224 14.04216,0.1188 21.52296,0.1188 L21.52224,0.16488 L21.52224,7.3764" id="path-20"></path>
        <radialGradient cx="100%" cy="112.519841%" fx="100%" fy="112.519841%" r="881.899802%" gradientTransform="translate(1.000000,1.125198),scale(0.340219,1.000000),scale(1.000000,0.127600),translate(-1.000000,-1.125198)" id="radialGradient-22">
            <stop stop-color="#9C6C4E" offset="0%"></stop>
            <stop stop-color="#5B3323" offset="100%"></stop>
        </radialGradient>
        <path d="M0.64224,7.3764 L0.64224,0.1188 C0.64296,0.1188 0.64296,0.1188 0.64296,0.1188 C8.1216,0.1188 15.30216,0.28224 21.97368,0.5832 C15.95232,4.86144 8.59032,7.3764 0.64224,7.3764" id="path-23"></path>
        <radialGradient cx="0.00337529956%" cy="112.519841%" fx="0.00337529956%" fy="112.519841%" r="881.899802%" gradientTransform="translate(0.000034,1.125198),scale(0.340230,1.000000),scale(1.000000,0.127600),translate(-0.000034,-1.125198)" id="radialGradient-25">
            <stop stop-color="#624735" offset="0%"></stop>
            <stop stop-color="#38251B" offset="100%"></stop>
        </radialGradient>
    </defs>
    <g id="Page-1" stroke="none" stroke-width="1" fill="none" fill-rule="evenodd">
        <g id="02_Onboarding" transform="translate(-8.000000, -32.000000)">
            <g id="artwork" transform="translate(-1.043988, 32.378000)">
                <g id="illustration" transform="translate(9.087188, 0.000000)">
                    <g id="Group-3">
                        <mask id="mask-2" fill="white">
                            <use xlink:href="#path-1"></use>
                        </mask>
                        <g id="Clip-2"></g>
                        <polygon id="Fill-1" mask="url(#mask-2)" points="0 359.622 359.57952 359.622 359.57952 -3.55271368e-15 0 -3.55271368e-15"></polygon>
                    </g>
                    <polyline id="Fill-4" fill="#3F3224" points="245.65464 217.4364 281.73672 204.39504 282.31704 206.93232 247.82688 223.77168 245.65464 217.4364"></polyline>
                    <polygon id="Fill-5" fill="#CA9F75" points="108.93888 273.17808 252.27216 273.17808 252.27216 204.26976 108.93888 204.26976"></polygon>
                    <path d="M126.78336,293.18256 C129.45528,293.18256 131.63472,291.00312 131.63472,288.3312 C131.63472,285.66 129.45528,283.48056 126.78336,283.48056 C124.11216,283.48056 121.932,285.66 121.932,288.3312 C121.932,291.00312 124.11216,293.18256 126.78336,293.18256" id="Fill-6" fill="#9C6C4E"></path>
                    <polygon id="Fill-7" fill="#9C6C4E" points="125.76384 305.8128 127.80216 305.8128 127.80216 270.85176 125.76384 270.85176"></polygon>
                    <polygon id="Fill-8" fill="#9C6C4E" points="109.3032 289.35 144.2628 289.35 144.2628 287.3124 109.3032 287.3124"></polygon>
                    <polyline id="Fill-9" fill="#9C6C4E" points="138.42216 275.25024 139.86288 276.69096 115.14312 301.41216 113.70168 299.97072 138.42216 275.25024"></polyline>
                    <polyline id="Fill-10" fill="#9C6C4E" points="113.7024 276.69096 115.14312 275.25024 139.8636 299.97072 138.42288 301.41216 113.7024 276.69096"></polyline>
                    <path d="M126.78336,271.61712 C136.01448,271.61712 143.49744,279.10152 143.49744,288.3312 C143.49744,297.56304 136.01448,305.04528 126.78336,305.04528 C117.55224,305.04528 110.06856,297.56304 110.06856,288.3312 C110.06856,279.10152 117.55224,271.61712 126.78336,271.61712 M148.51224,288.3312 C148.51224,276.33168 138.78288,266.60232 126.78336,266.60232 C114.78168,266.60232 105.05448,276.33168 105.05448,288.3312 C105.05448,300.33216 114.78168,310.0608 126.78336,310.0608 C138.78288,310.0608 148.51224,300.33216 148.51224,288.3312" id="Fill-11" fill="#9C6C4E"></path>
                    <path d="M127.80216,293.07528 C128.3868,292.95144 128.93112,292.72032 129.41712,292.4064 L137.85984,300.84984 C135.14832,303.25032 131.65128,304.78536 127.80216,305.01576 L127.80216,293.07528 M130.85856,290.9664 C131.17248,290.47896 131.40216,289.9332 131.52672,289.34928 L143.4672,289.34928 C143.23608,293.19984 141.70248,296.69616 139.30128,299.4084 L130.85856,290.9664 M129.4164,284.256 C128.9304,283.94208 128.38608,283.7124 127.80216,283.58712 L127.80216,271.64664 C131.64984,271.8792 135.1476,273.41352 137.85984,275.81472 L129.4164,284.256 M131.52672,287.3124 C131.40216,286.7292 131.17248,286.18344 130.85712,285.69744 L139.30056,277.25472 C141.70176,279.96624 143.23608,283.46328 143.4672,287.3124 L131.52672,287.3124 M148.51224,288.3312 C148.51224,276.33168 138.7836,266.60232 126.78336,266.60232 L126.78336,283.48056 L126.78264,286.88976 L126.78336,286.8912 L126.78336,310.0608 C138.7836,310.0608 148.51224,300.33216 148.51224,288.3312" id="Fill-12" fill="#624735"></path>
                    <polygon id="Fill-13" fill="#624735" points="108.93888 208.90368 252.27216 208.90368 252.27216 204.26976 108.93888 204.26976"></polygon>
                    <polyline id="Fill-14" fill="#3F3224" points="106.60752 119.17296 111.22488 118.81944 119.91816 202.41504 115.30008 202.76856 106.60752 119.17296"></polyline>
                    <polyline id="Fill-15" fill="#3F3224" points="252.55152 119.17296 247.93488 118.81944 239.24304 202.41504 243.85968 202.76856 252.55152 119.17296"></polyline>
                    <path d="M112.92264,127.11312 L127.9332,127.11312 L127.9332,132.90408 C127.9332,136.09008 125.3268,138.69504 122.14224,138.69504 L118.7136,138.69504 C115.52832,138.69504 112.92264,136.09008 112.92264,132.90408 L112.92264,127.11312" id="Fill-16" fill="#9C6C4E"></path>
                    <path d="M173.06064,127.11312 L188.0712,127.11312 L188.0712,132.90408 C188.0712,136.09008 185.4648,138.69504 182.28024,138.69504 L178.85088,138.69504 C175.66632,138.69504 173.06064,136.09008 173.06064,132.90408 L173.06064,127.11312" id="Fill-17" fill="#9C6C4E"></path>
                    <path d="M233.15904,127.11312 L248.16888,127.11312 L248.16888,132.90408 C248.16888,136.09008 245.56176,138.69504 242.37792,138.69504 L238.95,138.69504 C235.76616,138.69504 233.15904,136.09008 233.15904,132.90408 L233.15904,127.11312" id="Fill-18" fill="#9C6C4E"></path>
                    <path d="M142.98192,127.11312 L157.99176,127.11312 L157.99176,132.90408 C157.99176,136.09008 155.3868,138.69504 152.20152,138.69504 L148.77216,138.69504 C145.5876,138.69504 142.98192,136.09008 142.98192,132.90408 L142.98192,127.11312" id="Fill-19" fill="#9C6C4E"></path>
                    <path d="M203.11992,127.11312 L218.1312,127.11312 L218.1312,132.90408 C218.1312,136.09008 215.52336,138.69504 212.34024,138.69504 L208.9116,138.69504 C205.7256,138.69504 203.11992,136.09008 203.11992,132.90408 L203.11992,127.11312" id="Fill-20" fill="#9C6C4E"></path>
                    <path d="M263.21832,127.11312 L278.22816,127.11312 L278.22816,132.90408 C278.22816,136.09008 275.62104,138.69504 272.4372,138.69504 L269.00928,138.69504 C265.82328,138.69504 263.21832,136.09008 263.21832,132.90408 L263.21832,127.11312" id="Fill-21" fill="#9C6C4E"></path>
                    <path d="M97.89336,127.11312 L112.92264,127.11312 L112.92264,132.90408 C112.92264,136.09008 110.31768,138.69504 107.1324,138.69504 L103.68432,138.69504 C100.49976,138.69504 97.89336,136.09008 97.89336,132.90408 L97.89336,127.11312" id="Fill-22" fill="#3F3224"></path>
                    <path d="M158.03136,127.11312 L173.06064,127.11312 L173.06064,132.90408 C173.06064,136.09008 170.45568,138.69504 167.2704,138.69504 L163.82232,138.69504 C160.63704,138.69504 158.03136,136.09008 158.03136,132.90408 L158.03136,127.11312" id="Fill-23" fill="#3F3224"></path>
                    <path d="M218.1312,127.11312 L233.15904,127.11312 L233.15904,132.90408 C233.15904,136.09008 230.5548,138.69504 227.36952,138.69504 L223.92216,138.69504 C220.73472,138.69504 218.1312,136.09008 218.1312,132.90408 L218.1312,127.11312" id="Fill-24" fill="#3F3224"></path>
                    <path d="M127.95264,127.11312 L142.98192,127.11312 L142.98192,132.90408 C142.98192,136.09008 140.37696,138.69504 137.19168,138.69504 L133.7436,138.69504 C130.55832,138.69504 127.95264,136.09008 127.95264,132.90408 L127.95264,127.11312" id="Fill-25" fill="#3F3224"></path>
                    <path d="M188.09064,127.11312 L203.11992,127.11312 L203.11992,132.90408 C203.11992,136.09008 200.5128,138.69504 197.32896,138.69504 L193.88016,138.69504 C190.69632,138.69504 188.09064,136.09008 188.09064,132.90408 L188.09064,127.11312" id="Fill-26" fill="#3F3224"></path>
                    <path d="M248.18832,127.11312 L263.21832,127.11312 L263.21832,132.90408 C263.21832,136.09008 260.61192,138.69504 257.42736,138.69504 L253.97928,138.69504 C250.794,138.69504 248.18832,136.09008 248.18832,132.90408 L248.18832,127.11312" id="Fill-27" fill="#3F3224"></path>
                    <path d="M126.50256,55.39464 L236.7684,55.39464 C245.45736,55.39464 252.56592,62.50392 252.56592,71.19144 L252.56592,86.9904 L110.70432,86.9904 L110.70432,71.1936 C110.70432,62.50392 117.81288,55.39464 126.50256,55.39464" id="Fill-28" fill="#9C6C4E"></path>
                    <path d="M114.39864,86.9904 L248.8716,86.9904 L248.8716,71.35776 C248.8716,64.41048 241.83576,58.71528 233.2512,58.71528 L130.01904,58.71528 C121.43448,58.71528 114.39864,64.41048 114.39864,71.35776 L114.39864,86.9904" id="Fill-29" fill="#CA9F75"></path>
                    <path d="M276.66936,200.75976 L295.46496,200.75976 C297.22248,200.75976 298.65888,202.19688 298.65888,203.95512 C298.65888,205.71048 297.22248,207.14904 295.46496,207.14904 L276.66936,207.14904 C274.91328,207.14904 273.47544,205.71048 273.47544,203.95512 C273.47544,202.19688 274.91328,200.75976 276.66936,200.75976" id="Fill-30" fill="#3F3224"></path>
                    <path d="M103.95,195.93576 L257.26104,195.93576 C258.9264,195.93576 260.28864,197.29872 260.28864,198.96408 L260.28864,201.48912 C260.28864,203.15448 258.9264,204.51744 257.26104,204.51744 L103.95,204.51744 C102.28392,204.51744 100.92096,203.15448 100.92096,201.48912 L100.92096,198.96408 C100.92096,197.29872 102.28392,195.93576 103.95,195.93576" id="Fill-31" fill="#3F3224"></path>
                    <polygon id="Fill-32" fill="#624735" points="126.15696 276.93576 228.83904 276.93576 228.83904 273.17808 126.15696 273.17808"></polygon>
                    <path d="M228.83904,281.47608 C233.37504,281.47608 237.07296,277.77816 237.07296,273.2436 C237.07296,268.70976 233.37504,265.0104 228.83904,265.0104 C224.30592,265.0104 220.60656,268.70976 220.60656,273.2436 C220.60656,277.77816 224.30592,281.47608 228.83904,281.47608" id="Fill-33" fill="#9C6C4E"></path>
                    <polygon id="Fill-34" fill="#9C6C4E" points="227.10888 302.90688 230.5692 302.90688 230.5692 243.5796 227.10888 243.5796"></polygon>
                    <polygon id="Fill-35" fill="#9C6C4E" points="199.17432 274.97232 258.50376 274.97232 258.50376 271.51416 199.17432 271.51416"></polygon>
                    <polyline id="Fill-36" fill="#9C6C4E" points="248.59152 251.04456 251.0352 253.48896 209.08584 295.4412 206.64 292.99536 248.59152 251.04456"></polyline>
                    <polyline id="Fill-37" fill="#9C6C4E" points="206.64 253.48896 209.08584 251.04456 251.0388 292.99536 248.59152 295.4412 206.64 253.48896"></polyline>
                    <path d="M228.83904,244.87992 C244.50264,244.87992 257.20344,257.57856 257.20344,273.2436 C257.20344,288.90792 244.50264,301.608 228.83904,301.608 C213.17328,301.608 200.47464,288.90792 200.47464,273.2436 C200.47464,257.57856 213.17328,244.87992 228.83904,244.87992 M265.71312,273.2436 C265.71312,252.87768 249.20352,236.36952 228.83904,236.36952 C208.47384,236.36952 191.96496,252.87768 191.96496,273.2436 C191.96496,293.6088 208.47384,310.1184 228.83904,310.1184 C249.20352,310.1184 265.71312,293.6088 265.71312,273.2436" id="Fill-38" fill="#9C6C4E"></path>
                    <path d="M230.5692,281.29464 C231.55992,281.08296 232.48368,280.69128 233.3088,280.15848 L247.63608,294.48576 C243.03456,298.56024 237.09888,301.16448 230.5692,301.55616 L230.5692,281.29464 M235.7532,277.71192 C236.286,276.88896 236.67768,275.96304 236.88936,274.97232 L257.15088,274.97232 C256.7592,281.502 254.15568,287.4384 250.08048,292.04136 L235.7532,277.71192 M233.30736,266.328 C232.48368,265.7952 231.55776,265.40496 230.5692,265.19184 L230.5692,244.93032 C237.09888,245.32344 243.03312,247.92552 247.63392,252.00072 L233.30736,266.328 M236.88936,271.51416 C236.67768,270.52272 236.286,269.5968 235.7532,268.77168 L250.08048,254.44512 C254.15568,259.04808 256.7592,264.98232 257.15088,271.51416 L236.88936,271.51416 M265.71312,273.2436 C265.71312,252.87768 249.20352,236.36952 228.83904,236.36952 L228.83904,310.1184 C249.20352,310.1184 265.71312,293.6088 265.71312,273.2436" id="Fill-39" fill="#624735"></path>
                    <polyline id="Fill-40" fill="#9B7457" points="180.99216 254.07 191.60784 233.73072 170.37648 233.73072 180.99216 254.07"></polyline>
                    <polyline id="Fill-41" fill="#FFF9E6" points="149.3568 250.2828 164.63304 233.16624 144.04896 227.96496 149.3568 250.2828"></polyline>
                    <polyline id="Fill-42" fill="#3F3224" points="119.20176 238.10976 138.52296 225.74016 120.0996 215.18568 119.20176 238.10976"></polyline>
                    <polyline id="Fill-43" fill="#624735" points="212.21784 250.23024 197.0604 233.00784 217.68192 227.9484 212.21784 250.23024"></polyline>
                    <polyline id="Fill-44" fill="#FFF9E6" points="242.17848 237.84624 222.9444 225.33984 241.44192 214.9164 242.17848 237.84624"></polyline>
                    <path d="M111.6756,207.4248 C115.00992,211.07016 118.8468,214.4304 123.11208,217.45368 C138.69504,228.4956 159.99264,235.03104 183.31056,234.43848 C206.6292,233.84808 227.5668,226.24128 242.57016,214.4232 C245.13192,212.4036 247.52232,210.26304 249.7212,208.01232 L249.67872,206.31168 C247.29336,208.83888 244.6668,211.23216 241.82424,213.4728 C227.016,225.13896 206.33184,232.64568 183.28104,233.2296 C160.2288,233.81496 139.18968,227.3652 123.80976,216.46656 C119.20824,213.20784 115.11504,209.54664 111.62736,205.56 L111.6756,207.4248" id="Fill-45" fill="#3F3224"></path>
                    <path d="M249.5952,204.62976 C248.11992,204.62976 246.92112,205.8264 246.92112,207.3024 C246.92112,208.78128 248.11992,209.97792 249.5952,209.97792 C251.07264,209.97792 252.27216,208.78128 252.27216,207.3024 C252.27216,205.8264 251.07264,204.62976 249.5952,204.62976" id="Fill-46" fill="#3F3224"></path>
                    <path d="M111.6144,204.62976 C110.13624,204.62976 108.93888,205.8264 108.93888,207.3024 C108.93888,208.78128 110.13624,209.97792 111.6144,209.97792 C113.09184,209.97792 114.2892,208.78128 114.2892,207.3024 C114.2892,205.8264 113.09184,204.62976 111.6144,204.62976" id="Fill-47" fill="#3F3224"></path>
                    <path d="M110.70432,86.9904 C114.32232,86.9904 117.954,86.9904 121.59864,86.9904 C118.59408,92.08224 115.28352,97.686 111.62808,103.8744 C107.56008,110.75904 103.00896,118.46016 97.89336,127.11312 C92.86992,127.11312 87.86736,127.11312 82.88352,127.11312 C88.88832,118.46016 94.2264,110.75904 99.00288,103.8708 C103.29048,97.686 107.17848,92.08224 110.70432,86.9904" id="Fill-48" fill="#CA9F75"></path>
                    <path d="M241.62624,86.9904 C245.25936,86.9904 248.90688,86.9904 252.56592,86.9904 C255.83544,92.08584 259.43328,97.6896 263.40264,103.8744 C267.82416,110.75904 272.76552,118.4544 278.32608,127.11312 C273.2832,127.11312 268.2612,127.11312 263.25792,127.11312 C258.58728,118.4544 254.43864,110.75904 250.72704,103.8744 C247.39488,97.6896 244.37376,92.08584 241.62624,86.9904" id="Fill-49" fill="#CA9F75"></path>
                    <path d="M121.59864,86.9904 C125.23104,86.9904 128.86272,86.9904 132.50952,86.9904 C130.02552,92.08224 127.29168,97.686 124.27056,103.8744 C120.9096,110.75904 117.14904,118.46016 112.92264,127.11312 C107.89992,127.11312 102.89736,127.11312 97.89336,127.11312 C103.00896,118.46016 107.56008,110.75904 111.62808,103.8744 C115.28352,97.686 118.59408,92.08224 121.59864,86.9904" id="Fill-50" fill="#624735"></path>
                    <path d="M132.50952,86.9904 C136.14048,86.9904 139.77216,86.9904 143.41824,86.9904 C141.4584,92.08224 139.2984,97.686 136.91232,103.8744 C134.25912,110.75904 131.28912,118.46016 127.95264,127.11312 C122.93064,127.11312 117.92664,127.11312 112.92264,127.11312 C117.14904,118.46016 120.9096,110.75904 124.27056,103.8744 C127.29168,97.686 130.02552,92.08224 132.50952,86.9904" id="Fill-51" fill="#CA9F75"></path>
                    <path d="M143.41824,86.9904 C147.0492,86.9904 150.68016,86.9904 154.32624,86.9904 C152.89056,92.08224 151.30512,97.686 149.55624,103.8744 C147.60864,110.75904 145.4292,118.46016 142.98192,127.11312 C137.9592,127.11312 132.95664,127.11312 127.95264,127.11312 C131.28912,118.46016 134.25912,110.75904 136.91232,103.8744 C139.2984,97.686 141.4584,92.08224 143.41824,86.9904" id="Fill-52" fill="#624735"></path>
                    <path d="M154.32624,86.9904 C157.95792,86.9904 161.604,86.9904 165.25008,86.9904 C164.33712,92.08224 163.32768,97.686 162.21456,103.8744 C160.97472,110.75904 159.588,118.46016 158.03136,127.11312 C153.00792,127.11312 147.98592,127.11312 142.98192,127.11312 C145.4292,118.46016 147.60864,110.75904 149.55624,103.8744 C151.30512,97.686 152.89056,92.08224 154.32624,86.9904" id="Fill-53" fill="#CA9F75"></path>
                    <path d="M165.25008,86.9904 C168.88176,86.9904 172.51416,86.9904 176.1588,86.9904 C175.76856,92.08224 175.33584,97.686 174.85704,103.8744 C174.32424,110.75904 173.7288,118.46016 173.06064,127.11312 C168.03792,127.11312 163.03536,127.11312 158.03136,127.11312 C159.588,118.46016 160.97472,110.75904 162.21456,103.8744 C163.32768,97.686 164.33712,92.08224 165.25008,86.9904" id="Fill-54" fill="#624735"></path>
                    <path d="M176.1588,86.9904 C179.7912,86.9904 183.42216,86.9904 187.06824,86.9904 C187.2,92.08224 187.34328,97.686 187.4988,103.8744 C187.67304,110.75904 187.86888,118.4544 188.09064,127.11312 C183.0672,127.11312 178.06464,127.11312 173.06064,127.11312 C173.7288,118.46016 174.32424,110.75904 174.85704,103.8744 C175.33584,97.686 175.76856,92.08224 176.1588,86.9904" id="Fill-55" fill="#CA9F75"></path>
                    <path d="M187.06824,86.9904 C190.69992,86.9904 194.33088,86.9904 197.97552,86.9904 C198.63144,92.08584 199.34928,97.686 200.14272,103.8744 C201.02328,110.75904 202.00896,118.4544 203.11992,127.11312 C198.09792,127.11312 193.09392,127.11312 188.09064,127.11312 C187.86888,118.4544 187.67304,110.75904 187.4988,103.8744 C187.34328,97.686 187.2,92.08224 187.06824,86.9904" id="Fill-56" fill="#624735"></path>
                    <path d="M197.97552,86.9904 C201.60864,86.9904 205.25544,86.9904 208.9008,86.9904 C210.07872,92.08584 211.37184,97.686 212.80104,103.8744 C214.38936,110.75904 216.16632,118.4544 218.16864,127.11312 C213.14736,127.11312 208.1232,127.11312 203.11992,127.11312 C202.00896,118.4544 201.02328,110.75904 200.14272,103.8744 C199.34928,97.686 198.63144,92.08584 197.97552,86.9904" id="Fill-57" fill="#CA9F75"></path>
                    <path d="M208.9008,86.9904 C212.53176,86.9904 216.16272,86.9904 219.81024,86.9904 C221.51016,92.08584 223.38,97.686 225.44352,103.8744 C227.73744,110.75904 230.30712,118.4544 233.19864,127.11312 C228.1752,127.11312 223.17192,127.11312 218.16864,127.11312 C216.16632,118.4544 214.38936,110.75904 212.80104,103.8744 C211.37184,97.686 210.07872,92.08584 208.9008,86.9904" id="Fill-58" fill="#624735"></path>
                    <path d="M219.81024,86.9904 C223.4412,86.9904 227.0736,86.9904 230.71896,86.9904 C232.9416,92.08584 235.386,97.686 238.086,103.8744 C241.0884,110.75904 244.44648,118.4544 248.22792,127.11312 C243.20664,127.11312 238.20192,127.11312 233.19864,127.11312 C230.30712,118.4544 227.73744,110.75904 225.44352,103.8744 C223.38,97.686 221.51016,92.08584 219.81024,86.9904" id="Fill-59" fill="#CA9F75"></path>
                    <path d="M230.71896,86.9904 C234.35064,86.9904 237.9816,86.9904 241.62624,86.9904 C244.37376,92.08584 247.39488,97.6896 250.72704,103.8744 C254.43864,110.75904 258.58728,118.4544 263.25792,127.11312 C258.23448,127.11312 253.23192,127.11312 248.22792,127.11312 C244.44648,118.4544 241.0884,110.75904 238.086,103.8744 C235.386,97.686 232.9416,92.08584 230.71896,86.9904" id="Fill-60" fill="#624735"></path>
                    <path d="M82.88352,127.11312 L97.89336,127.11312 L97.89336,132.90408 C97.89336,136.09008 95.28768,138.69504 92.10312,138.69504 L88.67448,138.69504 C85.4892,138.69504 82.88352,136.09008 82.88352,132.90408 L82.88352,127.11312" id="Fill-61" fill="#9C6C4E"></path>
                    <path d="M123.51168,191.79432 L123.51168,191.79504 C123.58584,189.54864 123.20064,175.5396 125.06904,165.0528 L157.15656,165.0456 C159.00552,175.16232 158.72832,188.59536 158.76504,191.7864 L123.51168,191.79432 Z M156.94704,163.95768 C155.71008,157.87872 153.63072,153.24768 150.1344,153.24912 L131.94792,153.25344 C128.51424,153.25416 126.4788,157.89384 125.27352,163.96488 L156.94704,163.95768 L156.94704,163.95768 Z" id="Fill-62" fill="#624735"></path>
                    <path d="M122.36256,192.78792 L159.91632,192.77928 C160.50312,192.77928 160.984801,193.26024 160.984801,193.84776 C160.98552,194.436 160.50312,194.91696 159.91632,194.9184 L122.364,194.926321 C121.77432,194.92704 121.293359,194.4468 121.293359,193.85784 C121.29264,193.26888 121.7736,192.78792 122.36256,192.78792" id="Fill-63" fill="#3F3224"></path>
                    <path d="M137.57904,155.32704 L144.50472,155.325599 C145.18728,155.32488 145.74456,155.8836 145.74528,156.56616 L145.746,159.0984 C145.746,159.78024 145.18872,160.33896 144.50544,160.33968 L137.58048,160.341121 C136.89792,160.34184 136.34136,159.78312 136.339919,159.10056 L136.339919,156.5676 C136.3392,155.88504 136.8972,155.32704 137.57904,155.32704" id="Fill-64" fill="#3F3224"></path>
                    <path d="M137.37096,162.948241 C137.75616,162.948241 138.06936,162.6336 138.06936,162.2484 C138.06936,161.8632 137.75616,161.54928 137.37168,161.54856 C136.98432,161.54928 136.67184,161.86392 136.67112,162.2484 C136.67184,162.6336 136.98504,162.94896 137.37096,162.948241" id="Fill-65" fill="#3F3224"></path>
                    <path d="M141.0444,162.9468 C141.42888,162.9468 141.74352,162.63216 141.74352,162.24768 C141.7428,161.86176 141.4296,161.54784 141.04296,161.54784 C140.65776,161.54784 140.34384,161.8632 140.34384,162.24768 C140.34384,162.63216 140.65776,162.9468 141.0444,162.9468" id="Fill-66" fill="#3F3224"></path>
                    <path d="M144.71712,162.9468 C145.1016,162.94608 145.41624,162.63144 145.41624,162.24624 C145.41624,161.86176 145.1016,161.54712 144.71712,161.54712 C144.33192,161.54712 144.017999,161.86176 144.017999,162.24624 C144.01728,162.63144 144.33192,162.9468 144.71712,162.9468" id="Fill-67" fill="#3F3224"></path>
                    <path d="M137.00304,165.71808 L145.08648,165.71592 L145.08648,167.81544 C145.0872,168.9696 144.144,169.91352 142.98912,169.91424 L139.10112,169.91496 C137.94696,169.91496 137.00304,168.97104 137.00304,167.81688 L137.00304,165.71808" id="Fill-68" fill="#9B7557"></path>
                    <polyline id="Fill-69" fill="#9B7557" points="139.81608 169.91496 142.27488 169.91424 141.57144 172.48032 140.52168 172.4796 139.81608 169.91496"></polyline>
                    <path d="M135.38736,178.0992 L146.88288,178.0956 L146.5164,186.354 C146.41488,188.622 144.6588,190.4832 142.38792,190.4832 L140.16024,190.48392 C137.74104,190.48392 135.87192,188.50248 135.7596,186.08544 L135.38736,178.0992" id="Fill-70" fill="#9B7557"></path>
                    <path d="M138.01896,189.7956 L144.2592,189.79344 C144.54432,189.79344 144.77904,190.02672 144.77976,190.31328 L144.77904,190.314 C144.77832,190.59984 144.54432,190.83168 144.2592,190.83312 L138.01896,190.83456 C137.7324,190.83384 137.49912,190.60056 137.49912,190.31616 L137.49912,190.31544 C137.49912,190.02888 137.73168,189.7956 138.01896,189.7956" id="Fill-71" fill="#9B7557"></path>
                    <path d="M146.77344,180.5724 C148.34376,180.22968 149.8788,181.1232 150.21216,182.57832 C150.5484,184.04496 149.53824,185.52672 147.95784,185.89032 C147.46968,186.0012 146.98584,185.994 146.53728,185.886 L146.5164,186.354 C146.5056,186.588 146.4768,186.8184 146.43216,187.04304 C147.00168,187.146 147.60432,187.13664 148.212,186.9984 C150.45408,186.4836 151.88472,184.38264 151.4088,182.30472 C150.9552,180.32976 148.94568,179.08776 146.82528,179.40672 L146.77344,180.5724" id="Fill-72" fill="#9B7557"></path>
                    <path d="M141.03288,172.68984 C141.21504,173.44584 141.76296,173.826 141.762242,174.20472 C141.76296,174.58344 141.58008,174.96216 141.03432,174.96288 C140.48856,174.96216 140.30424,174.58416 140.304958,174.20544 C140.30568,173.826 140.85072,173.44656 141.03288,172.68984" id="Fill-73" fill="#9B7557"></path>
                    <path d="M142.62696,175.35096 C142.81056,176.10912 143.35704,176.48784 143.35704,176.86728 C143.35704,177.24528 143.17488,177.62472 142.62768,177.624001 C142.08192,177.62472 141.900479,177.246 141.900479,176.86728 C141.89976,176.48856 142.44552,176.10984 142.62696,175.35096" id="Fill-74" fill="#9B7557"></path>
                    <path d="M139.38192,180.65016 C139.54392,180.558 139.7196,180.49824 139.90248,180.46944 C139.80096,180.61848 139.71168,180.78552 139.63032,180.98136 C139.46688,181.44 139.4496,181.8072 139.52736,182.28672 C139.7196,183.20184 140.15952,183.87648 140.71968,184.60656 C141.246,185.26536 141.78888,185.83128 142.38216,186.42888 C142.56432,186.63552 142.77384,186.83856 142.96104,187.04664 L143.1,187.22808 L143.1252,187.20576 C143.1504,187.19496 143.12952,187.26264 143.08992,187.36848 C141.94224,187.93296 140.22,186.96888 139.1976,185.16672 C138.15216,183.3228 138.23496,181.30104 139.38192,180.65016 Z M140.00256,180.45648 C139.9032,180.62496 139.824,180.81144 139.76208,181.03176 C139.65192,181.47096 139.6656,181.8072 139.7844,182.2428 C140.0652,183.0744 140.54544,183.66048 141.138,184.28976 C141.72912,184.84344 142.29504,185.43168 142.94592,185.92272 C143.17632,186.12936 143.40888,186.33672 143.62776,186.55848 C143.6472,186.57936 143.70912,186.65352 143.76384,186.72336 C144.2988,185.80464 144.17064,184.25376 143.35344,182.81016 C142.48152,181.2744 141.10128,180.34704 140.00256,180.45648 L140.00256,180.45648 Z" id="Fill-75" fill="#3F3224"></path>
                    <path d="M242.30088,78.49224 L242.30088,75.7836 L236.07216,75.7836 L236.07216,74.06136 L241.31448,74.06136 L241.31448,71.46936 L236.07216,71.46936 L236.07216,69.92208 L242.18496,69.92208 L242.18496,67.21416 L232.45488,67.21416 L232.45488,78.49224 L242.30088,78.49224 Z M230.24952,67.21416 L225.31608,67.21416 L223.63344,73.7136 L223.57584,73.7136 L221.87304,67.21416 L216.74664,67.21416 L216.74664,78.49224 L220.07448,78.49224 L220.07448,74.42928 C220.07448,72.7272 219.78288,70.8696 219.78288,70.8696 L219.84192,70.8696 L221.95008,78.49224 L224.77464,78.49224 L226.86336,70.85016 L226.92168,70.85016 C226.92168,70.85016 226.6704,72.7272 226.6704,74.42928 L226.6704,78.49224 L230.24952,78.49224 L230.24952,67.21416 Z M210.7692,78.49224 L214.40592,78.49224 L214.40592,67.21416 L210.7692,67.21416 L210.7692,78.49224 Z M208.95048,67.21416 L197.94312,67.21416 L197.94312,70.09632 L201.6576,70.09632 L201.6576,78.49224 L205.27488,78.49224 L205.27488,70.09632 L208.95048,70.09632 L208.95048,67.21416 Z M191.36592,78.49224 L191.36592,75.7836 L185.13648,75.7836 L185.13648,74.06136 L190.36008,74.06136 L190.36008,71.46936 L185.13648,71.46936 L185.13648,69.92208 L191.25,69.92208 L191.25,67.21416 L181.49976,67.21416 L181.49976,78.49224 L191.36592,78.49224 Z M179.54568,78.49224 L179.54568,75.7836 L173.29752,75.7836 L173.29752,74.06136 L178.53984,74.06136 L178.53984,71.46936 L173.29752,71.46936 L173.29752,69.92208 L179.42976,69.92208 L179.42976,67.21416 L169.68024,67.21416 L169.68024,78.49224 L179.54568,78.49224 Z M162.36792,78.49224 L162.36792,74.44872 L167.08824,74.44872 L167.08824,71.85672 L162.36792,71.85672 L162.36792,69.92208 L167.86152,69.92208 L167.86152,67.21416 L158.75064,67.21416 L158.75064,78.49224 L162.36792,78.49224 Z M151.45776,78.49224 L151.45776,74.44872 L156.17736,74.44872 L156.17736,71.85672 L151.45776,71.85672 L151.45776,69.92208 L156.93192,69.92208 L156.93192,67.21416 L147.84048,67.21416 L147.84048,78.49224 L151.45776,78.49224 Z M139.79232,69.7284 C141.37848,69.7284 142.19136,70.79256 142.19136,72.3204 L142.19136,73.38456 C142.19136,74.91312 141.37848,75.97656 139.79232,75.97656 C138.20616,75.97656 137.41272,74.91312 137.41272,73.38456 L137.41272,72.3204 C137.41272,70.79256 138.20616,69.7284 139.79232,69.7284 Z M139.79232,67.01976 C135.94248,67.01976 133.7184,69.01272 133.7184,72.86256 C133.7184,76.69296 135.94248,78.6852 139.79232,78.6852 C143.64216,78.6852 145.8864,76.69296 145.8864,72.86256 C145.8864,69.01272 143.64216,67.01976 139.79232,67.01976 Z M126.81216,67.01976 C122.96232,67.01976 120.97008,69.01272 120.97008,72.86256 C120.97008,76.69296 122.96232,78.6852 126.81216,78.6852 C130.2552,78.6852 132.24816,77.022 132.24816,73.926 L128.90088,73.926 C128.90088,75.20328 128.1852,75.97656 126.774,75.97656 C125.30376,75.97656 124.66512,74.91312 124.66512,73.38456 L124.66512,72.3204 C124.66512,70.79256 125.26488,69.7284 126.81216,69.7284 C128.08944,69.7284 128.78496,70.56072 128.78496,71.85672 L132.24816,71.85672 C132.24816,68.70312 130.1004,67.01976 126.81216,67.01976 L126.81216,67.01976 Z" id="Fill-76" fill="#FFF9E6"></path>
                    <g id="shadow-reel-left" transform="translate(103.956800, 308.622000)" fill="black" fill-opacity="1">
                        <g id="Oval">
                            <use filter="url(#filter-4)" xlink:href="#path-3"></use>
                        </g>
                        <g id="Oval">
                            <use filter="url(#filter-6)" xlink:href="#path-5"></use>
                        </g>
                    </g>
                    <g id="Group-80" transform="translate(125.236800, 302.742000)">
                        <mask id="mask-8" fill="white">
                            <use xlink:href="#path-7"></use>
                        </mask>
                        <g id="Clip-79"></g>
                        <path d="M1.54656,2.30328 C1.20456,2.30328 0.86472,2.2932 0.52704,2.27304 L0.52704,0.1188 C0.8676,0.1188 1.20744,0.11952 1.54656,0.12024 L1.54656,2.30328" id="Fill-78" fill="url(#radialGradient-9)" mask="url(#mask-8)"></path>
                    </g>
                    <g id="Group-83" transform="translate(110.116800, 302.742000)">
                        <mask id="mask-11" fill="white">
                            <use xlink:href="#path-10"></use>
                        </mask>
                        <g id="Clip-82"></g>
                        <path d="M16.66656,7.3188 C10.3608,7.3188 4.68216,4.63248 0.7128,0.342 C3.24792,0.26496 5.84568,0.20664 8.48808,0.1692 C10.62648,1.3716 13.05792,2.1168 15.64704,2.27304 C15.98472,2.2932 16.32456,2.30328 16.66656,2.30328 L16.66656,7.3188 M17.68536,2.27376 L17.68536,2.27304 C20.25216,2.11896 22.66272,1.38528 24.78744,0.2016 C24.7896,0.2016 24.78744,0.2016 24.7896,0.2016 C22.66416,1.386 20.25288,2.1204 17.68536,2.27376" id="Fill-81" fill="url(#radialGradient-12)" mask="url(#mask-11)"></path>
                    </g>
                    <g id="Group-86" transform="translate(126.676800, 302.742000)">
                        <mask id="mask-14" fill="white">
                            <use xlink:href="#path-13"></use>
                        </mask>
                        <g id="Clip-85"></g>
                        <path d="M0.10656,7.3188 L0.10656,0.12024 C0.4464,0.12024 0.78696,0.12168 1.12536,0.12312 L1.12536,2.27376 C3.69288,2.1204 6.10416,1.386 8.2296,0.2016 C10.87344,0.24984 13.47048,0.31896 15.99984,0.4068 C12.03336,4.65984 6.38064,7.3188 0.10656,7.3188" id="Fill-84" fill="url(#radialGradient-15)" mask="url(#mask-14)"></path>
                    </g>
                    <g id="shadow-reel-right" transform="translate(182.956800, 308.622000)" fill="black" fill-opacity="1">
                        <g id="Oval">
                            <use filter="url(#filter-17)" xlink:href="#path-16"></use>
                        </g>
                        <g id="Oval">
                            <use filter="url(#filter-19)" xlink:href="#path-18"></use>
                        </g>
                    </g>
                    <g id="Group-90" transform="translate(207.316800, 302.742000)">
                        <mask id="mask-21" fill="white">
                            <use xlink:href="#path-20"></use>
                        </mask>
                        <g id="Clip-89"></g>
                        <path d="M21.52224,7.3764 C13.57344,7.3764 6.21216,4.86144 0.1908,0.5832 C6.86376,0.28224 14.04216,0.1188 21.52296,0.1188 L21.52224,0.16488 L21.52224,7.3764" id="Fill-88" fill="url(#radialGradient-22)" mask="url(#mask-21)"></path>
                    </g>
                    <g id="Group-93" transform="translate(228.196800, 302.742000)">
                        <mask id="mask-24" fill="white">
                            <use xlink:href="#path-23"></use>
                        </mask>
                        <g id="Clip-92"></g>
                        <path d="M0.64224,7.3764 L0.64224,0.1188 C0.64296,0.1188 0.64296,0.1188 0.64296,0.1188 C8.1216,0.1188 15.30216,0.28224 21.97368,0.5832 C15.95232,4.86144 8.59032,7.3764 0.64224,7.3764" id="Fill-91" fill="url(#radialGradient-25)" mask="url(#mask-24)"></path>
                    </g>
                    <path d="M175.34232,193.65408 L177.8292,173.41272 L177.80688,173.24136 L177.68808,173.09664 L177.50952,172.9944 C177.4476,172.97496 177.37344,172.96272 177.28848,172.96272 L163.49256,172.96272 C163.40832,172.96272 163.33416,172.97496 163.27152,172.9944 L163.09368,173.09664 L162.97488,173.24136 L162.95256,173.41272 L165.43944,193.65408 C165.46968,193.90176 165.62232,194.12064 165.84768,194.27616 C166.07376,194.43168 166.37472,194.526 166.70592,194.526 L174.07584,194.526 C174.40704,194.526 174.708,194.43168 174.93264,194.27616 C175.15944,194.12064 175.31208,193.90176 175.34232,193.65408" id="Fill-95" fill="#624735"></path>
                    <polyline id="Fill-96" fill="#CA9F75" points="163.38168 178.76952 177.39936 178.76952 176.56632 186.8904 164.21544 186.8904 163.38168 178.76952"></polyline>
                    <path d="M173.53512,180.91224 C173.36088,180.84168 173.17368,180.79416 172.95696,180.76752 C172.5264,180.72936 172.21176,180.79272 171.81792,180.96768 C171.07632,181.35288 170.59248,181.89288 170.08632,182.54376 C169.65144,183.1824 169.17984,183.80376 168.81264,184.48704 C168.65136,184.73544 168.48936,184.98528 168.31296,185.2236 L168.1776,185.37768 C169.12152,185.74488 170.56656,185.39856 171.80568,184.41504 C173.12616,183.36816 173.79864,181.93176 173.53512,180.91224 Z M173.26152,180.35568 C173.37168,180.49392 173.45376,180.65016 173.50704,180.81864 C173.35224,180.7452 173.18232,180.68688 172.98576,180.63648 C172.52856,180.5508 172.17936,180.58824 171.73872,180.73296 C170.90568,181.04688 170.33256,181.56024 169.72704,182.196 C169.18272,182.79 168.7284,183.38472 168.25248,184.03128 C168.08472,184.23216 167.92416,184.4604 167.75496,184.66848 L167.60592,184.82472 L167.62824,184.84488 C167.64264,184.8672 167.57568,184.85712 167.47056,184.83552 C166.76856,183.83544 167.42592,182.07072 168.97608,180.84312 C170.5608,179.58672 172.4796,179.36856 173.26152,180.35568 L173.26152,180.35568 Z" id="Fill-97" fill="#60493C"></path>
                    <path d="M162.12744,169.52688 L178.65432,169.52688 C179.06472,169.52688 179.40024,169.8624 179.40024,170.2728 L179.40024,171.76608 C179.40024,172.17576 179.06472,172.51128 178.65432,172.51128 L162.12744,172.51128 C161.71704,172.51128 161.38152,172.17576 161.38152,171.76608 L161.38152,170.2728 C161.38152,169.8624 161.71704,169.52688 162.12744,169.52688" id="Fill-98" fill="#CA9F75"></path>
                    <path d="M176.07888,165.17232 L175.30992,165.17232 L174.92544,164.19744 L174.05064,164.19744 L173.65392,165.17232 L164.70288,165.17232 C164.15424,165.17232 163.70424,165.62232 163.70424,166.17096 L163.70424,168.16968 C163.70424,168.71904 164.15424,169.16904 164.70288,169.16904 L176.07888,169.16904 C176.62824,169.16904 177.0768,168.71904 177.0768,168.16968 L177.0768,166.17096 C177.0768,165.62232 176.62824,165.17232 176.07888,165.17232" id="Fill-99" fill="#CA9F75"></path>
                    <path d="M195.73416,193.65408 L198.22176,173.41272 L198.19944,173.24136 L198.08064,173.09664 L197.90208,172.9944 C197.83944,172.97496 197.766,172.96272 197.68104,172.96272 L183.88512,172.96272 C183.80016,172.96272 183.72672,172.97496 183.66408,172.9944 L183.48552,173.09664 L183.36672,173.24136 L183.34512,173.41272 L185.832,193.65408 C185.86224,193.90176 186.01488,194.11992 186.24024,194.27616 C186.46632,194.43168 186.76728,194.526 187.09848,194.526 L194.46768,194.526 C194.79888,194.526 195.09984,194.43168 195.3252,194.27616 C195.552,194.11992 195.70464,193.90176 195.73416,193.65408" id="Fill-100" fill="#624735"></path>
                    <polyline id="Fill-101" fill="#CA9F75" points="183.77424 178.76952 197.79192 178.76952 196.95888 186.8904 184.60728 186.8904 183.77424 178.76952"></polyline>
                    <path d="M193.92696,180.91224 C193.75344,180.84168 193.56624,180.79416 193.35024,180.76752 C192.91896,180.72936 192.6036,180.79272 192.21048,180.96768 C191.46816,181.35288 190.98504,181.89288 190.47816,182.54376 C190.04328,183.1824 189.5724,183.80376 189.2052,184.48704 C189.04392,184.73472 188.88192,184.98456 188.70552,185.2236 L188.57016,185.37696 C189.51336,185.74416 190.9584,185.39856 192.19824,184.41504 C193.51872,183.36816 194.1912,181.93176 193.92696,180.91224 Z M193.65336,180.35568 C193.76352,180.49392 193.84632,180.65016 193.8996,180.81864 C193.74408,180.7452 193.57488,180.68688 193.37832,180.63648 C192.92112,180.5508 192.57192,180.58824 192.13056,180.73296 C191.29752,181.04688 190.72512,181.56024 190.1196,182.196 C189.57456,182.79 189.12096,183.38472 188.64432,184.03128 C188.47656,184.23216 188.31672,184.4604 188.14752,184.66848 L187.99776,184.82472 L188.0208,184.84416 C188.0352,184.86648 187.96824,184.85712 187.86312,184.83552 C187.16112,183.83544 187.81776,182.07072 189.36792,180.84312 C190.95336,179.58672 192.87216,179.36856 193.65336,180.35568 L193.65336,180.35568 Z" id="Fill-102" fill="#60493C"></path>
                    <path d="M182.52,169.52688 L199.04688,169.52688 C199.45656,169.52688 199.7928,169.8624 199.7928,170.2728 L199.7928,171.76608 C199.7928,172.17576 199.45656,172.51128 199.04688,172.51128 L182.52,172.51128 C182.1096,172.51128 181.77408,172.17576 181.77408,171.76608 L181.77408,170.2728 C181.77408,169.8624 182.1096,169.52688 182.52,169.52688" id="Fill-103" fill="#CA9F75"></path>
                    <path d="M196.47144,165.17232 L195.70248,165.17232 L195.318,164.19744 L194.44248,164.19744 L194.04576,165.17232 L185.09544,165.17232 C184.5468,165.17232 184.0968,165.62232 184.0968,166.17096 L184.0968,168.16968 C184.0968,168.71904 184.5468,169.16904 185.09544,169.16904 L196.47144,169.16904 C197.0208,169.16904 197.46936,168.71904 197.46936,168.16968 L197.46936,166.17096 C197.46936,165.62232 197.0208,165.17232 196.47144,165.17232" id="Fill-104" fill="#CA9F75"></path>
                    <path d="M210.97224,187.91568 C211.2372,187.87176 211.51584,187.84008 211.79304,187.80264 C212.28264,187.74 212.77152,187.65792 213.1848,187.46496 C214.23888,186.9732 214.85304,185.472 213.6924,184.83768 C213.25968,184.60224 212.61096,184.56552 212.38128,185.01048 C212.73048,185.58 212.01048,185.77296 211.79808,185.55624 L211.78872,185.54616 L211.75272,185.73336 C211.61232,186.43608 211.302,187.16688 210.97224,187.91568 Z M211.37832,188.6112 C211.06728,188.96328 211.39128,189.20376 211.22424,189.31392 C211.05432,189.42552 210.6684,189.3096 210.44664,189.1368 C210.27672,189.558 210.12552,189.9828 210.0168,190.40832 C209.79432,191.29104 209.58912,192.25512 209.58408,192.9636 L205.16976,192.9636 C205.16328,192.25512 204.9588,191.29104 204.73488,190.40832 C204.32592,188.78976 203.29344,187.2 202.99968,185.73336 C202.84272,184.95288 202.8204,184.42512 202.8096,183.06864 L211.9428,183.06864 C211.93848,183.67128 211.93128,184.10904 211.9104,184.47912 C212.07024,184.36536 212.27112,184.27608 212.49504,184.22424 C213.64632,183.95712 214.59456,184.56912 214.8264,185.44464 C214.9596,185.94792 214.83144,186.46632 214.5636,186.90336 C213.6528,188.39592 211.79304,188.14248 211.37832,188.6112 Z M214.96104,193.19256 L199.7928,193.19256 C200.08296,193.6008 201.57696,193.94928 203.67936,194.14008 L203.67144,194.19768 C203.67144,194.3208 203.7708,194.41944 203.89248,194.41944 L210.8592,194.41944 C210.98088,194.41944 211.08096,194.3208 211.08096,194.19768 L211.07376,194.14008 C213.17616,193.94928 214.67088,193.6008 214.96104,193.19256 L214.96104,193.19256 Z" id="Fill-105" fill="#624735"></path>
                    <path d="M227.65248,187.91568 C227.91744,187.87176 228.19608,187.84008 228.47328,187.80264 C228.96288,187.74 229.45176,187.65792 229.86504,187.46496 C230.91912,186.9732 231.53328,185.472 230.37264,184.83768 C229.93992,184.60224 229.2912,184.56552 229.06152,185.01048 C229.41072,185.58 228.69072,185.77296 228.47832,185.55624 L228.46896,185.54616 L228.43296,185.73336 C228.29256,186.43608 227.98224,187.16688 227.65248,187.91568 Z M228.05856,188.6112 C227.74752,188.96328 228.07152,189.20376 227.90448,189.31392 C227.73456,189.42552 227.34864,189.3096 227.12688,189.1368 C226.95696,189.558 226.80576,189.9828 226.69704,190.40832 C226.47456,191.29104 226.26936,192.25512 226.26432,192.9636 L221.85,192.9636 C221.84352,192.25512 221.63904,191.29104 221.41512,190.40832 C221.00616,188.78976 219.97368,187.2 219.67992,185.73336 C219.52296,184.95288 219.50064,184.42512 219.48984,183.06864 L228.62304,183.06864 C228.61872,183.67128 228.61152,184.10904 228.59064,184.47912 C228.75048,184.36536 228.95136,184.27608 229.17528,184.22424 C230.32656,183.95712 231.2748,184.56912 231.50664,185.44464 C231.63984,185.94792 231.51168,186.46632 231.24384,186.90336 C230.33304,188.39592 228.47328,188.14248 228.05856,188.6112 Z M231.64128,193.19256 L216.47304,193.19256 C216.7632,193.6008 218.2572,193.94928 220.3596,194.14008 L220.35168,194.19768 C220.35168,194.3208 220.45104,194.41944 220.57272,194.41944 L227.53944,194.41944 C227.66112,194.41944 227.7612,194.3208 227.7612,194.19768 L227.754,194.14008 C229.8564,193.94928 231.35112,193.6008 231.64128,193.19256 L231.64128,193.19256 Z" id="Fill-106" fill="#624735"></path>
                    <path d="M222.97176,320.31 C223.60392,318.58344 225.90216,317.47968 228.6756,317.72232 C231.27768,317.94192 233.54352,319.28616 234.4644,320.9796 C234.31896,320.98392 234.18216,321.00552 234.12888,321.0084 C233.65728,321.11784 233.20008,321.25752 232.7436,321.39432 C231.59664,321.8652 230.37192,322.10784 229.16736,322.43544 C227.86704,322.67304 226.68552,322.80624 225.33552,322.40232 C224.64072,322.14456 224.15616,321.83496 223.60896,321.2388 C223.34616,320.9256 223.14456,320.6232 222.97176,320.31 Z M222.81408,321.408 C222.78888,321.0876 222.83712,320.7708 222.93216,320.47488 C223.0596,320.7708 223.23816,321.06312 223.44624,321.37992 C223.9812,322.074 224.4744,322.45416 225.22104,322.81992 C226.62648,323.44128 227.88648,323.45712 229.31496,323.3484 C230.61312,323.24184 231.79824,322.99416 233.06256,322.71552 C233.478,322.65072 233.91216,322.54056 234.34128,322.47 C234.44928,322.4592 234.57672,322.46136 234.684,322.45128 C234.7776,322.44984 234.7452,322.46208 234.68112,322.39872 C234.67536,322.34328 234.7524,322.44192 234.88056,322.60896 C234.85464,324.84744 232.27776,326.42136 229.0104,326.1492 C225.684,325.86696 222.9048,323.748 222.81408,321.408 L222.81408,321.408 Z" id="Fill-107" fill="#9B7458"></path>
                    <path d="M145.62792,310.97304 C146.26008,309.24648 148.5576,308.14272 151.33176,308.38536 C153.93384,308.60568 156.19896,309.9492 157.12056,311.64264 C156.97512,311.64696 156.83832,311.66928 156.78504,311.67144 C156.31344,311.78088 155.85624,311.92056 155.39976,312.05808 C154.25208,312.52824 153.02808,312.77088 151.8228,313.09848 C150.5232,313.33608 149.34168,313.47 147.99168,313.06536 C147.29616,312.80832 146.8116,312.498 146.26512,311.90184 C146.0016,311.58864 145.80072,311.28624 145.62792,310.97304 Z M145.47024,312.07104 C145.44504,311.75064 145.49256,311.43384 145.5876,311.13792 C145.71576,311.43384 145.89432,311.72688 146.1024,312.04296 C146.63664,312.73704 147.13056,313.1172 147.8772,313.48296 C149.28264,314.10432 150.54264,314.12016 151.9704,314.01144 C153.26928,313.90488 154.4544,313.6572 155.718,313.37928 C156.13416,313.31448 156.56832,313.2036 156.99744,313.13376 C157.10472,313.12224 157.23288,313.1244 157.33944,313.11432 C157.43304,313.11288 157.40064,313.12512 157.33656,313.06176 C157.33152,313.00632 157.40856,313.10568 157.53672,313.272 C157.5108,315.51048 154.93392,317.0844 151.66656,316.81224 C148.33944,316.53 145.56096,314.41104 145.47024,312.07104 L145.47024,312.07104 Z" id="Fill-108" fill="#9B7458"></path>
                    <path d="M248.29416,315.216 C248.80536,313.60464 250.87248,312.49512 253.43352,312.60456 C255.83328,312.70176 257.97168,313.8444 258.8868,315.3636 C258.75288,315.3744 258.62832,315.40032 258.57864,315.40464 C258.15168,315.52344 257.73624,315.67176 257.32224,315.81648 C256.28688,316.29528 255.17088,316.56744 254.07648,316.9188 C252.89136,317.19024 251.81136,317.36088 250.55208,317.04336 C249.90192,316.83456 249.44472,316.56888 248.91552,316.04472 C248.6628,315.76752 248.4648,315.49824 248.29416,315.216 Z M248.19336,316.23192 C248.15736,315.9396 248.18832,315.64656 248.26464,315.36936 C248.3928,315.63792 248.5692,315.89856 248.7744,316.18224 C249.29352,316.79712 249.76368,317.1276 250.46424,317.43144 C251.78112,317.94696 252.94104,317.91024 254.25,317.75256 C255.43944,317.59992 256.518,317.3256 257.67,317.01672 C258.04728,316.93968 258.44328,316.8216 258.83496,316.73808 C258.9336,316.72512 259.05168,316.7208 259.1496,316.70856 C259.23384,316.7028 259.20576,316.71648 259.14456,316.66032 C259.13664,316.6092 259.2108,316.69632 259.33536,316.84464 C259.40376,318.90384 257.0976,320.45544 254.08296,320.34024 C251.0136,320.21424 248.37192,318.37968 248.19336,316.23192 L248.19336,316.23192 Z" id="Fill-109" fill="#9B7458"></path>
                    <path d="M267.7788,307.5732 C267.95592,307.2816 268.1676,307.00728 268.4376,306.72504 C268.9884,306.18288 269.4708,305.91072 270.15048,305.70552 C271.48248,305.39088 272.59416,305.58024 273.8304,305.88912 C274.96008,306.26784 276.1236,306.5796 277.20144,307.09224 C277.6284,307.24704 278.0604,307.40544 278.4996,307.53 C278.54208,307.5372 278.68392,307.56456 278.81568,307.58472 C277.84944,309.15072 275.59728,310.31424 273.08664,310.38048 C270.41184,310.45248 268.28568,309.25944 267.7788,307.5732 Z M267.67728,306.50544 C267.6456,306.81864 267.66792,307.12464 267.73632,307.41552 C267.88608,307.13976 268.0668,306.86616 268.29144,306.57816 C268.83504,305.94456 269.33976,305.6004 270.05976,305.29728 C271.45368,304.78104 272.66472,304.83288 274.02192,305.01216 C275.26176,305.20224 276.37992,305.49816 277.57296,305.83728 C277.97184,305.92296 278.38152,306.05112 278.78472,306.14328 C278.89272,306.16704 279.01008,306.17136 279.12024,306.18576 C279.20232,306.18504 279.17712,306.1836 279.10584,306.23976 C279.10656,306.28584 279.18864,306.19512 279.3132,306.04608 C279.41832,303.89328 277.03224,302.23944 273.89592,302.32152 C270.684,302.40648 267.90192,304.27992 267.67728,306.50544 L267.67728,306.50544 Z" id="Fill-110" fill="#231B16"></path>
                    <path d="M115.8768,321.58296 C116.00496,321.37128 116.15904,321.17184 116.35488,320.96736 C116.75592,320.57352 117.10584,320.37552 117.59976,320.22576 C118.56744,319.99752 119.37528,320.13432 120.27312,320.35968 C121.09464,320.63472 121.93992,320.8608 122.72256,321.23376 C123.03288,321.34608 123.3468,321.46128 123.66648,321.55128 C123.69672,321.55704 123.8004,321.57648 123.89544,321.5916 C123.19416,322.72992 121.5576,323.57448 119.73312,323.62272 C117.78984,323.67456 116.24472,322.8084 115.8768,321.58296 Z M115.80264,320.8068 C115.7796,321.03504 115.79616,321.25752 115.84584,321.46848 C115.95456,321.26904 116.0856,321.06888 116.24904,320.86008 C116.64432,320.4 117.0108,320.14944 117.53352,319.92912 C118.54656,319.55472 119.4264,319.59216 120.4128,319.72248 C121.31352,319.86 122.12568,320.07528 122.99328,320.32152 C123.28272,320.38416 123.5808,320.47704 123.87312,320.544 C123.9516,320.56128 124.03728,320.56416 124.1172,320.57568 L124.1064,320.61384 C124.10712,320.64768 124.16688,320.58144 124.2576,320.47344 C124.33392,318.90888 122.60016,317.7072 120.32064,317.76696 C117.98712,317.82888 115.96608,319.1904 115.80264,320.8068 L115.80264,320.8068 Z" id="Fill-111" fill="#231B16"></path>
                    <path d="M119.78856,331.55784 C119.87208,331.42032 119.97216,331.29 120.09888,331.15824 C120.35952,330.90192 120.58632,330.77448 120.90672,330.67728 C121.53456,330.52896 122.05872,330.61752 122.64192,330.76368 C123.17472,330.94224 123.72264,331.08912 124.23096,331.33032 C124.43256,331.40376 124.63632,331.47864 124.84296,331.53696 L124.992,331.56288 C124.53624,332.3016 123.47496,332.84952 122.29128,332.88048 C121.02984,332.91432 120.0276,332.35272 119.78856,331.55784 Z M119.74104,331.05384 C119.72592,331.20216 119.73672,331.34688 119.7684,331.48296 C119.83896,331.35336 119.92464,331.22448 120.03048,331.0884 C120.2868,330.7896 120.52512,330.6276 120.86424,330.48432 C121.52088,330.24096 122.09184,330.26616 122.73192,330.3504 C123.31656,330.43968 123.8436,330.57936 124.40664,330.7392 C124.59384,330.78024 124.78752,330.84 124.9776,330.8832 L125.13528,330.90336 L125.1288,330.92928 C125.12952,330.95088 125.16768,330.90768 125.22672,330.83784 C125.2764,329.82192 124.15176,329.04288 122.67216,329.08176 C121.158,329.12208 119.84688,330.0048 119.74104,331.05384 L119.74104,331.05384 Z" id="Fill-112" fill="#231B16"></path>
                    <path d="M129.26376,322.8228 C129.39264,322.61112 129.546,322.41096 129.74256,322.20648 C130.14288,321.81264 130.49352,321.61536 130.98672,321.4656 C131.95512,321.23736 132.76296,321.37416 133.6608,321.59952 C134.48232,321.87384 135.3276,322.10064 136.11024,322.47288 C136.42056,322.58592 136.73448,322.70112 137.05416,322.79112 C137.0844,322.79688 137.18808,322.81632 137.28312,322.83072 C136.58112,323.96976 134.94456,324.8136 133.1208,324.86256 C131.1768,324.9144 129.63168,324.04824 129.26376,322.8228 Z M129.19032,322.04664 C129.16728,322.27488 129.18384,322.49736 129.2328,322.70832 C129.34224,322.50816 129.47328,322.30872 129.636,322.09992 C130.032,321.63912 130.39776,321.38928 130.9212,321.16896 C131.93424,320.79384 132.81408,320.832 133.80048,320.96232 C134.7012,321.09984 135.51336,321.31512 136.38096,321.56136 C136.66968,321.624 136.96776,321.71688 137.2608,321.78312 C137.33928,321.80112 137.42496,321.804 137.50488,321.8148 L137.49408,321.85368 C137.4948,321.88752 137.55456,321.82128 137.64456,321.71328 C137.72088,320.14872 135.98784,318.94704 133.70832,319.0068 C131.3748,319.06872 129.35304,320.43024 129.19032,322.04664 L129.19032,322.04664 Z" id="Fill-113" fill="#231B16"></path>
                    <path d="M99.02376,309.63024 C99.15264,309.41928 99.306,309.21912 99.50256,309.01464 C99.90288,308.6208 100.25352,308.42352 100.74672,308.27376 C101.71512,308.0448 102.52296,308.18232 103.4208,308.40696 C104.24232,308.682 105.0876,308.9088 105.87024,309.28104 C106.18056,309.39336 106.49448,309.50928 106.81416,309.59928 C106.8444,309.60432 106.94808,309.62448 107.04312,309.63888 C106.34112,310.7772 104.70456,311.62176 102.8808,311.67 C100.9368,311.72256 99.39168,310.8564 99.02376,309.63024 Z M98.95032,308.85408 C98.92728,309.08304 98.94384,309.3048 98.9928,309.51576 C99.10224,309.31632 99.23328,309.11688 99.396,308.90808 C99.792,308.44728 100.15776,308.19672 100.6812,307.97712 C101.69424,307.602 102.57408,307.64016 103.56048,307.76976 C104.4612,307.908 105.27336,308.12328 106.14096,308.36952 C106.42968,308.43144 106.72776,308.52432 107.0208,308.59128 C107.09928,308.60928 107.18496,308.61144 107.26488,308.62296 L107.25408,308.66184 C107.2548,308.69568 107.31456,308.62944 107.40456,308.52072 C107.48088,306.95688 105.74784,305.7552 103.46832,305.81496 C101.1348,305.87688 99.11304,307.23768 98.95032,308.85408 L98.95032,308.85408 Z" id="Fill-114" fill="#231B16"></path>
                    <path d="M259.33896,329.562 C259.4232,329.42376 259.52328,329.29416 259.65144,329.16024 C259.91208,328.90392 260.14032,328.77432 260.46216,328.67784 C261.09288,328.5288 261.61992,328.61808 262.20528,328.76496 C262.74096,328.94424 263.29104,329.09184 263.80152,329.33448 C264.00384,329.4072 264.20904,329.4828 264.41712,329.54184 L264.56616,329.56776 C264.10896,330.30936 263.04192,330.86016 261.85248,330.89184 C260.586,330.92568 259.57944,330.36048 259.33896,329.562 Z M259.29144,329.05656 C259.27632,329.20488 259.28712,329.3496 259.31952,329.48784 C259.39008,329.3568 259.47576,329.2272 259.58232,329.09112 C259.83936,328.79088 260.0784,328.62744 260.41968,328.48416 C261.07992,328.23936 261.65304,328.26384 262.296,328.34952 C262.88352,328.43952 263.41272,328.5792 263.9772,328.73976 C264.16656,328.7808 264.36096,328.84128 264.55104,328.8852 L264.71016,328.90536 L264.70368,328.93056 C264.70368,328.95216 264.74328,328.90968 264.80232,328.8384 C264.85128,327.81888 263.7216,327.03552 262.23624,327.07512 C260.71488,327.11544 259.39728,328.00248 259.29144,329.05656 L259.29144,329.05656 Z" id="Fill-115" fill="#231B16"></path>
                    <path d="M225.38088,179.838 C225.21096,180.75024 224.89416,181.66608 224.6904,182.28744 C226.24992,180.33912 227.44296,178.596 225.96768,176.11992 C225.51192,175.35312 224.88192,174.64968 224.43192,173.86992 C223.79976,172.77408 223.71264,172.0404 224.01216,169.99488 C220.70088,175.41792 226.16784,175.61376 225.38088,179.838" id="Fill-130" fill="#9B7457"></path>
                    <path d="M222.8076,182.40696 C226.08432,178.20936 221.56128,178.45776 222.1596,173.7612 C219.82248,177.81912 224.33904,177.20136 222.8076,182.40696" id="Fill-131" fill="#9B7457"></path>
                    <path d="M208.70064,179.77824 C208.53072,180.69048 208.21392,181.60632 208.01016,182.22768 C209.56968,180.27936 210.76272,178.53624 209.28744,176.06016 C208.83168,175.29336 208.20168,174.58992 207.75168,173.81016 C207.11952,172.71432 207.0324,171.98064 207.33192,169.93512 C204.02064,175.35816 209.4876,175.554 208.70064,179.77824" id="Fill-132" fill="#9B7457"></path>
                    <path d="M206.12736,182.3472 C209.40408,178.1496 204.88104,178.398 205.47936,173.70144 C203.14224,177.75936 207.6588,177.1416 206.12736,182.3472" id="Fill-133" fill="#9B7457"></path>
                </g>
            </g>
        </g>
    </g>
</svg>