<svg width="60" height="74" viewBox="0 0 60 74" fill="none" xmlns="http://www.w3.org/2000/svg">
<path fill-rule="evenodd" clip-rule="evenodd" d="M60 30C60 44.3968 49.8589 56.425 36.3304 59.3309L36.3333 59.3333C36.3333 59.3333 30.6667 61.3333 30.6667 65.3333C30.6667 65.7015 30.3682 66 30 66C29.6318 66 29.3333 65.7015 29.3333 65.3333C29.3333 61.3333 23.6667 59.3333 23.6667 59.3333L23.6696 59.3309C10.1411 56.425 0 44.3968 0 30C0 13.4315 13.4315 0 30 0C46.5685 0 60 13.4315 60 30ZM30 74C31.6569 74 33 72.6569 33 71C33 69.3431 31.6569 68 30 68C28.3431 68 27 69.3431 27 71C27 72.6569 28.3431 74 30 74Z" fill="#5F4D46"/>
<mask id="mask0" mask-type="alpha" maskUnits="userSpaceOnUse" x="0" y="0" width="60" height="74">
<path fill-rule="evenodd" clip-rule="evenodd" d="M60 30C60 44.3968 49.8589 56.425 36.3304 59.3309L36.3333 59.3333C36.3333 59.3333 30.6667 61.3333 30.6667 65.3333C30.6667 65.7015 30.3682 66 30 66C29.6318 66 29.3333 65.7015 29.3333 65.3333C29.3333 61.3333 23.6667 59.3333 23.6667 59.3333L23.6696 59.3309C10.1411 56.425 0 44.3968 0 30C0 13.4315 13.4315 0 30 0C46.5685 0 60 13.4315 60 30ZM30 74C31.6569 74 33 72.6569 33 71C33 69.3431 31.6569 68 30 68C28.3431 68 27 69.3431 27 71C27 72.6569 28.3431 74 30 74Z" fill="white"/>
</mask>
<g mask="url(#mask0)">
<circle cx="30" cy="30" r="27" fill="#F4D5AD"/>
<mask id="mask1" mask-type="alpha" maskUnits="userSpaceOnUse" x="19" y="23" width="26" height="15">
<path fill-rule="evenodd" clip-rule="evenodd" d="M19.8936 23.3698H44.5573V37.8435H19.8936V23.3698Z" fill="white"/>
</mask>
<g mask="url(#mask1)">
<path fill-rule="evenodd" clip-rule="evenodd" d="M29.941 37.3464C24.6924 37.3464 20.3936 32.2867 20.3936 26.0749V23.8707H39.4384V26.0749C39.4384 32.2867 35.1896 37.3464 29.941 37.3464" fill="#B98068"/>
<path fill-rule="evenodd" clip-rule="evenodd" d="M43.4371 27.5778C42.8373 29.6818 40.5379 30.884 38.9384 31.2347C39.5882 29.6317 39.9381 27.8783 39.9381 26.125V24.4218H41.5876C42.1875 24.4218 42.7873 24.7223 43.1372 25.2233C43.5871 25.8745 43.7371 26.7762 43.4371 27.5778ZM38.9385 26.0749C38.9385 32.0363 34.8895 36.8454 29.8909 36.8454C24.8922 36.8454 20.8933 32.0363 20.8933 26.0749V24.3717H38.9385V26.0749ZM41.5877 23.3698H20.3934C20.0935 23.3698 19.8936 23.5701 19.8936 23.8707V26.0749C19.8936 32.5873 24.3923 37.8473 29.9408 37.8473C33.5399 37.8473 36.689 35.593 38.4386 32.2867C40.2381 32.1364 43.5372 30.8339 44.387 27.8282C44.7369 26.7261 44.5369 25.5238 43.8871 24.572C43.3372 23.8206 42.4875 23.4198 41.5877 23.3698V23.3698Z" fill="#2D140D"/>
</g>
<path fill-rule="evenodd" clip-rule="evenodd" d="M28.2411 22.2676C28.541 22.2676 28.7409 22.0672 28.7409 21.7667V16.4065C28.7409 16.1059 28.541 15.9055 28.2411 15.9055C27.9412 15.9055 27.7412 16.1059 27.7412 16.4065V21.7667C27.7412 22.0171 27.9412 22.2676 28.2411 22.2676" fill="#2D140D"/>
<path fill-rule="evenodd" clip-rule="evenodd" d="M31.5902 22.2676C31.8901 22.2676 32.0901 22.0672 32.0901 21.7667V13.501C32.0901 13.2004 31.8901 13 31.5902 13C31.2903 13 31.0903 13.2004 31.0903 13.501V21.7667C31.0903 22.0172 31.3403 22.2676 31.5902 22.2676" fill="#2D140D"/>
<path fill-rule="evenodd" clip-rule="evenodd" d="M22.9252 43.8406C22.5615 43.8406 22.28 43.9772 22.0805 44.2504C21.8811 44.5237 21.7813 44.9044 21.7813 45.3927C21.7813 46.4088 22.1626 46.9168 22.9252 46.9168C23.2451 46.9168 23.6326 46.8368 24.0877 46.6768V47.4871C23.7137 47.643 23.296 47.7209 22.8348 47.7209C22.172 47.7209 21.665 47.5199 21.3138 47.1178C20.9627 46.7157 20.7871 46.1386 20.7871 45.3865C20.7871 44.9127 20.8733 44.4977 21.0458 44.1414C21.2183 43.785 21.466 43.5118 21.7891 43.3217C22.1122 43.1316 22.4909 43.0365 22.9252 43.0365C23.3677 43.0365 23.8124 43.1435 24.2591 43.3575L23.9474 44.1429C23.7771 44.0619 23.6056 43.9912 23.4332 43.931C23.2607 43.8707 23.0914 43.8406 22.9252 43.8406ZM25.4753 45.9101C25.4753 46.255 25.532 46.5158 25.6452 46.6924C25.7584 46.869 25.9428 46.9573 26.1984 46.9573C26.4519 46.9573 26.6342 46.8695 26.7454 46.6939C26.8566 46.5183 26.9121 46.2571 26.9121 45.9101C26.9121 45.5652 26.856 45.3065 26.7438 45.134C26.6316 44.9616 26.4478 44.8753 26.1922 44.8753C25.9387 44.8753 25.7558 44.961 25.6436 45.1325C25.5314 45.3039 25.4753 45.5631 25.4753 45.9101ZM27.8845 45.9101C27.8845 46.4774 27.7349 46.921 27.4357 47.2409C27.1365 47.5609 26.7199 47.7209 26.1859 47.7209C25.8514 47.7209 25.5563 47.6477 25.3007 47.5012C25.0452 47.3547 24.8488 47.1443 24.7117 46.8701C24.5745 46.5958 24.506 46.2758 24.506 45.9101C24.506 45.3408 24.6545 44.8982 24.9517 44.5824C25.2488 44.2666 25.6664 44.1087 26.2046 44.1087C26.5391 44.1087 26.8341 44.1814 27.0897 44.3268C27.3453 44.4723 27.5416 44.6811 27.6788 44.9533C27.8159 45.2255 27.8845 45.5444 27.8845 45.9101ZM30.3318 44.8878H29.509V47.6585H28.5584V44.8878H28.0348V44.4296L28.5584 44.1741V43.9185C28.5584 43.5216 28.656 43.2318 28.8514 43.0489C29.0467 42.8661 29.3594 42.7747 29.7895 42.7747C30.1178 42.7747 30.4097 42.8235 30.6653 42.9211L30.4222 43.6193C30.231 43.559 30.0544 43.5289 29.8923 43.5289C29.7573 43.5289 29.6596 43.5689 29.5994 43.6489C29.5391 43.7289 29.509 43.8312 29.509 43.9559V44.1741H30.3318V44.8878ZM32.8033 44.8878H31.9805V47.6585H31.03V44.8878H30.5063V44.4296L31.03 44.1741V43.9185C31.03 43.5216 31.1276 43.2318 31.3229 43.0489C31.5182 42.8661 31.8309 42.7747 32.261 42.7747C32.5893 42.7747 32.8813 42.8235 33.1368 42.9211L32.8937 43.6193C32.7026 43.559 32.526 43.5289 32.3639 43.5289C32.2288 43.5289 32.1312 43.5689 32.0709 43.6489C32.0107 43.7289 31.9805 43.8312 31.9805 43.9559V44.1741H32.8033V44.8878ZM34.5247 44.785C34.3232 44.785 34.1652 44.8489 34.051 44.9766C33.9367 45.1044 33.8712 45.2857 33.8546 45.5205H35.1886C35.1844 45.2857 35.1231 45.1044 35.0047 44.9766C34.8862 44.8489 34.7262 44.785 34.5247 44.785ZM34.6585 47.7209C34.0975 47.7209 33.6591 47.5661 33.3432 47.2565C33.0274 46.9469 32.8695 46.5085 32.8695 45.9413C32.8695 45.3574 33.0155 44.906 33.3074 44.5871C33.5993 44.2681 34.0029 44.1087 34.5182 44.1087C35.0107 44.1087 35.394 44.2489 35.6683 44.5294C35.9426 44.8099 36.0797 45.1974 36.0797 45.692V46.1532H33.8326C33.843 46.4233 33.9229 46.6342 34.0725 46.7859C34.2222 46.9376 34.432 47.0134 34.7021 47.0134C34.912 47.0134 35.1104 46.9916 35.2974 46.948C35.4844 46.9043 35.6797 46.8347 35.8833 46.7392V47.4747C35.7171 47.5578 35.5395 47.6196 35.3504 47.6601C35.1613 47.7007 34.9307 47.7209 34.6585 47.7209ZM38.0315 44.785C37.83 44.785 37.6721 44.8489 37.5578 44.9766C37.4435 45.1044 37.3781 45.2857 37.3615 45.5205H38.6954C38.6912 45.2857 38.6299 45.1044 38.5115 44.9766C38.3931 44.8489 38.2331 44.785 38.0315 44.785ZM38.1657 47.7209C37.6047 47.7209 37.1663 47.5661 36.8504 47.2565C36.5346 46.9469 36.3767 46.5085 36.3767 45.9413C36.3767 45.3574 36.5227 44.906 36.8146 44.5871C37.1065 44.2681 37.5101 44.1087 38.0254 44.1087C38.5179 44.1087 38.9012 44.2489 39.1755 44.5294C39.4498 44.8099 39.5869 45.1974 39.5869 45.692V46.1532H37.3398C37.3502 46.4233 37.4301 46.6342 37.5798 46.7859C37.7294 46.9376 37.9392 47.0134 38.2093 47.0134C38.4192 47.0134 38.6176 46.9916 38.8046 46.948C38.9916 46.9043 39.1869 46.8347 39.3905 46.7392V47.4747C39.2243 47.5578 39.0467 47.6196 38.8576 47.6601C38.6685 47.7007 38.4379 47.7209 38.1657 47.7209Z" fill="#2D140D"/>
<rect x="15" y="40.0088" width="29.7872" height="1.06383" rx="0.531915" fill="#2D140D"/>
</g>
</svg>
