<svg width="16" height="15" viewBox="0 0 16 15" fill="none" xmlns="http://www.w3.org/2000/svg">
<path d="M11.6544 10.7971C11.8161 10.334 12.2479 10 12.7597 10C13.4097 10 13.9372 10.5357 13.9372 11.1957C13.9372 11.8557 13.4097 12.3913 12.7597 12.3913C12.2479 12.3913 11.8169 12.0573 11.6544 11.5942H6.7998V10.7971H6.92497H11.6544Z" fill="#803825"/>
<path fill-rule="evenodd" clip-rule="evenodd" d="M11.5701 4.78986C11.5701 4.12986 12.0976 3.5942 12.7476 3.5942C13.3976 3.5942 13.9251 4.12986 13.9251 4.78986C13.9251 5.44986 13.3976 5.98551 12.7476 5.98551C12.0976 5.98551 11.5701 5.44986 11.5701 4.78986ZM12.7476 9.17391C12.8591 9.17391 12.965 9.12529 13.0396 9.04159C13.2908 8.75703 15.4952 6.22145 15.4952 4.78986C15.4952 3.25145 14.2627 2 12.7476 2C11.2325 2 10 3.25145 10 4.78986C10 6.22145 12.2043 8.75703 12.4556 9.04159C12.5301 9.12529 12.6361 9.17391 12.7476 9.17391V9.17391Z" fill="#803825"/>
<path d="M3.84072 10.7971C3.67901 10.334 3.24724 10 2.73541 10C2.08541 10 1.55787 10.5357 1.55787 11.1957C1.55787 11.8557 2.08541 12.3913 2.73541 12.3913C3.24724 12.3913 3.67822 12.0573 3.84072 11.5942H8.69531V10.7971H8.57015H3.84072Z" fill="#803825"/>
<path fill-rule="evenodd" clip-rule="evenodd" d="M3.92506 4.78986C3.92506 4.12986 3.39752 3.5942 2.74752 3.5942C2.09752 3.5942 1.56998 4.12986 1.56998 4.78986C1.56998 5.44986 2.09752 5.98551 2.74752 5.98551C3.39752 5.98551 3.92506 5.44986 3.92506 4.78986ZM2.74753 9.17391C2.63606 9.17391 2.53008 9.12529 2.4555 9.04159C2.2043 8.75703 -5.08681e-05 6.22145 -5.08681e-05 4.78986C-5.08681e-05 3.25145 1.23244 2 2.74753 2C4.26263 2 5.49512 3.25145 5.49512 4.78986C5.49512 6.22145 3.29077 8.75703 3.03956 9.04159C2.96498 9.12529 2.85901 9.17391 2.74753 9.17391V9.17391Z" fill="#803825"/>
</svg>
