<?xml version="1.0" encoding="UTF-8" standalone="no"?>
<!DOCTYPE svg PUBLIC "-//W3C//DTD SVG 1.1//EN" "http://www.w3.org/Graphics/SVG/1.1/DTD/svg11.dtd">
<svg width="100%" height="100%" viewBox="0 0 360 360" version="1.1" xmlns="http://www.w3.org/2000/svg" xmlns:xlink="http://www.w3.org/1999/xlink" xml:space="preserve" xmlns:serif="http://www.serif.com/" style="fill-rule:evenodd;clip-rule:evenodd;stroke-linejoin:round;stroke-miterlimit:2;">
    <g transform="matrix(0.434533,0,0,0.434533,50.0268,-4.38328)">
        <g id="page">
            <g id="cart">
                <g transform="matrix(1,0,0,1,0,54)">
                    <rect x="24.3" y="114.5" width="563.1" height="563.1" style="fill:rgb(188,149,122);"/>
                    <g>
                        <g>
                            <g>
                                <path d="M564.5,436.7C564.5,440.8 567.8,444.1 571.9,444.1L587.6,444.1C591.7,444.1 595,440.8 595,436.7L595,435.5C595,431.4 591.7,428.1 587.6,428.1L571.9,428.1C567.8,428.1 564.5,431.4 564.5,435.5L564.5,436.7Z" style="fill:rgb(173,132,104);fill-rule:nonzero;"/>
                                <path d="M581.2,455.2C581.2,459.3 584.5,462.6 588.6,462.6L604.3,462.6C608.4,462.6 611.7,459.3 611.7,455.2L611.7,454C611.7,449.9 608.4,446.6 604.3,446.6L588.6,446.6C584.5,446.6 581.2,449.9 581.2,454L581.2,455.2Z" style="fill:rgb(173,132,104);fill-rule:nonzero;"/>
                                <path d="M547.8,455.2C547.8,459.3 551.1,462.6 555.2,462.6L571,462.6C575.1,462.6 578.4,459.3 578.4,455.2L578.4,454C578.4,449.9 575.1,446.6 571,446.6L555.3,446.6C551.2,446.6 547.9,449.9 547.9,454L547.9,455.2L547.8,455.2Z" style="fill:rgb(173,132,104);fill-rule:nonzero;"/>
                                <path d="M564.5,473.7C564.5,477.8 567.8,481.1 571.9,481.1L587.6,481.1C591.7,481.1 595,477.8 595,473.7L595,472.5C595,468.4 591.7,465.1 587.6,465.1L571.9,465.1C567.8,465.1 564.5,468.4 564.5,472.5L564.5,473.7Z" style="fill:rgb(173,132,104);fill-rule:nonzero;"/>
                                <path d="M531.2,473.7C531.2,477.8 534.5,481.1 538.6,481.1L554.3,481.1C558.4,481.1 561.7,477.8 561.7,473.7L561.7,472.5C561.7,468.4 558.4,465.1 554.3,465.1L538.6,465.1C534.5,465.1 531.2,468.4 531.2,472.5L531.2,473.7Z" style="fill:rgb(173,132,104);fill-rule:nonzero;"/>
                                <path d="M531.2,436.7C531.2,440.8 534.5,444.1 538.6,444.1L554.3,444.1C558.4,444.1 561.7,440.8 561.7,436.7L561.7,435.5C561.7,431.4 558.4,428.1 554.3,428.1L538.6,428.1C534.5,428.1 531.2,431.4 531.2,435.5L531.2,436.7Z" style="fill:rgb(173,132,104);fill-rule:nonzero;"/>
                                <path d="M547.8,418.1C547.8,422.2 551.1,425.5 555.2,425.5L571,425.5C575.1,425.5 578.4,422.2 578.4,418.1L578.4,416.9C578.4,412.8 575.1,409.5 571,409.5L555.3,409.5C551.2,409.5 547.9,412.8 547.9,416.9L547.9,418.1L547.8,418.1Z" style="fill:rgb(173,132,104);fill-rule:nonzero;"/>
                            </g>
                        </g>
                        <g>
                            <g>
                                <path d="M547.8,610.9C547.8,615 551.1,618.3 555.2,618.3L571,618.3C575.1,618.3 578.4,615 578.4,610.9L578.4,609.7C578.4,605.6 575.1,602.3 571,602.3L555.3,602.3C551.2,602.3 547.9,605.6 547.9,609.7L547.9,610.9L547.8,610.9Z" style="fill:rgb(173,132,104);fill-rule:nonzero;"/>
                                <path d="M531.2,629.4C531.2,633.5 534.5,636.8 538.6,636.8L554.3,636.8C558.4,636.8 561.7,633.5 561.7,629.4L561.7,628.2C561.7,624.1 558.4,620.8 554.3,620.8L538.6,620.8C534.5,620.8 531.2,624.1 531.2,628.2L531.2,629.4Z" style="fill:rgb(173,132,104);fill-rule:nonzero;"/>
                                <path d="M531.2,592.4C531.2,596.5 534.5,599.8 538.6,599.8L554.3,599.8C558.4,599.8 561.7,596.5 561.7,592.4L561.7,591.2C561.7,587.1 558.4,583.8 554.3,583.8L538.6,583.8C534.5,583.8 531.2,587.1 531.2,591.2L531.2,592.4Z" style="fill:rgb(173,132,104);fill-rule:nonzero;"/>
                                <path d="M547.8,573.9C547.8,578 551.1,581.3 555.2,581.3L571,581.3C575.1,581.3 578.4,578 578.4,573.9L578.4,572.7C578.4,568.6 575.1,565.3 571,565.3L555.3,565.3C551.2,565.3 547.9,568.6 547.9,572.7L547.9,573.9L547.8,573.9Z" style="fill:rgb(173,132,104);fill-rule:nonzero;"/>
                            </g>
                        </g>
                        <g>
                            <g>
                                <path d="M23.9,436.7C23.9,440.8 27.2,444.1 31.3,444.1L47,444.1C51.1,444.1 54.4,440.8 54.4,436.7L54.4,435.5C54.4,431.4 51.1,428.1 47,428.1L31.3,428.1C27.2,428.1 23.9,431.4 23.9,435.5L23.9,436.7Z" style="fill:rgb(173,132,104);fill-rule:nonzero;"/>
                                <path d="M40.5,455.2C40.5,459.3 43.8,462.6 47.9,462.6L63.6,462.6C67.7,462.6 71,459.3 71,455.2L71,454C71,449.9 67.7,446.6 63.6,446.6L47.9,446.6C43.8,446.6 40.5,449.9 40.5,454C40.5,453.9 40.5,455.2 40.5,455.2Z" style="fill:rgb(173,132,104);fill-rule:nonzero;"/>
                                <path d="M7.2,455.2C7.2,459.3 10.5,462.6 14.6,462.6L30.3,462.6C34.4,462.6 37.7,459.3 37.7,455.2L37.7,454C37.7,449.9 34.4,446.6 30.3,446.6L14.6,446.6C10.5,446.6 7.2,449.9 7.2,454L7.2,455.2Z" style="fill:rgb(173,132,104);fill-rule:nonzero;"/>
                                <path d="M23.9,473.7C23.9,477.8 27.2,481.1 31.3,481.1L47,481.1C51.1,481.1 54.4,477.8 54.4,473.7L54.4,472.5C54.4,468.4 51.1,465.1 47,465.1L31.3,465.1C27.2,465.1 23.9,468.4 23.9,472.5L23.9,473.7Z" style="fill:rgb(173,132,104);fill-rule:nonzero;"/>
                                <path d="M-9.5,473.7C-9.5,477.8 -6.2,481.1 -2.1,481.1L13.6,481.1C17.7,481.1 21,477.8 21,473.7L21,472.5C21,468.4 17.7,465.1 13.6,465.1L-2.1,465.1C-6.2,465.1 -9.5,468.4 -9.5,472.5L-9.5,473.7Z" style="fill:rgb(173,132,104);fill-rule:nonzero;"/>
                                <path d="M-9.5,436.7C-9.5,440.8 -6.2,444.1 -2.1,444.1L13.6,444.1C17.7,444.1 21,440.8 21,436.7L21,435.5C21,431.4 17.7,428.1 13.6,428.1L-2.1,428.1C-6.2,428.1 -9.5,431.4 -9.5,435.5L-9.5,436.7Z" style="fill:rgb(173,132,104);fill-rule:nonzero;"/>
                                <path d="M7.2,418.1C7.2,422.2 10.5,425.5 14.6,425.5L30.3,425.5C34.4,425.5 37.7,422.2 37.7,418.1L37.7,416.9C37.7,412.8 34.4,409.5 30.3,409.5L14.6,409.5C10.5,409.5 7.2,412.8 7.2,416.9L7.2,418.1Z" style="fill:rgb(173,132,104);fill-rule:nonzero;"/>
                            </g>
                        </g>
                        <g>
                            <g>
                                <path d="M40.3,610.9C40.3,615 43.6,618.3 47.7,618.3L63.4,618.3C67.5,618.3 70.8,615 70.8,610.9L70.8,609.7C70.8,605.6 67.5,602.3 63.4,602.3L47.7,602.3C43.6,602.3 40.3,605.6 40.3,609.7L40.3,610.9Z" style="fill:rgb(173,132,104);fill-rule:nonzero;"/>
                                <path d="M23.6,629.4C23.6,633.5 26.9,636.8 31,636.8L46.7,636.8C50.8,636.8 54.1,633.5 54.1,629.4L54.1,628.2C54.1,624.1 50.8,620.8 46.7,620.8L31,620.8C26.9,620.8 23.6,624.1 23.6,628.2L23.6,629.4Z" style="fill:rgb(173,132,104);fill-rule:nonzero;"/>
                                <path d="M23.6,592.4C23.6,596.5 26.9,599.8 31,599.8L46.7,599.8C50.8,599.8 54.1,596.5 54.1,592.4L54.1,591.2C54.1,587.1 50.8,583.8 46.7,583.8L31,583.8C26.9,583.8 23.6,587.1 23.6,591.2L23.6,592.4Z" style="fill:rgb(173,132,104);fill-rule:nonzero;"/>
                                <path d="M40.3,573.9C40.3,578 43.6,581.3 47.7,581.3L63.4,581.3C67.5,581.3 70.8,578 70.8,573.9L70.8,572.7C70.8,568.6 67.5,565.3 63.4,565.3L47.7,565.3C43.6,565.3 40.3,568.6 40.3,572.7C40.3,572.6 40.3,573.9 40.3,573.9Z" style="fill:rgb(173,132,104);fill-rule:nonzero;"/>
                            </g>
                        </g>
                    </g>
                </g>
                <g transform="matrix(1,0,0,1,0,54)">
                    <path d="M574.5,201.2L574.5,147.8C564.8,147.8 557,140.1 556.7,130.6L55.3,130.6C55,140.2 47.1,147.8 37.5,147.8L37.5,201.2C47.4,201.2 55.3,209.2 55.3,219C55.3,219.7 55.3,220.3 55.2,221L556.7,221C556.6,220.4 556.6,219.7 556.6,219C556.7,209.2 564.6,201.2 574.5,201.2Z" style="fill:rgb(170,117,80);fill-rule:nonzero;"/>
                    <g>
                        <path d="M490.8,191.5C490.8,191.5 485,199 475.1,197C465.2,195 457,187 455.3,178.8C453.6,170.6 456.7,163.6 460.9,163.7C465.1,163.8 468.3,169.3 472.3,177.8C476.3,186.3 487.9,189 487.9,189C487.9,189 482.8,185.8 480.8,181.3C478.8,176.9 472.9,163.8 463.1,161.9C463.1,161.9 472,155.7 484.3,164.3C496.5,172.9 495.5,186.4 490.8,191.5Z" style="fill:rgb(89,54,40);fill-rule:nonzero;"/>
                        <path d="M121.2,191.5C121.2,191.5 127,199 136.9,197C146.8,195 155,187 156.7,178.8C158.4,170.6 155.3,163.6 151.1,163.7C146.9,163.8 143.7,169.3 139.7,177.8C135.7,186.3 124.1,189 124.1,189C124.1,189 129.2,185.8 131.2,181.3C133.2,176.9 139.1,163.8 148.9,161.9C148.9,161.9 140,155.7 127.7,164.3C115.5,172.9 116.5,186.4 121.2,191.5Z" style="fill:rgb(89,54,40);fill-rule:nonzero;"/>
                        <g>
                            <path d="M208.3,184.3C205.1,193 197.2,194.8 191.6,194.8C185.5,194.8 178.6,191.8 178.6,179.6C178.6,166.6 182.8,149.8 198.6,149.8C204.1,149.8 209,152 209,157.8C209,161 207.9,163.3 204.8,163.3C203.8,163.3 202.5,163.1 201.4,161.8C202.9,161.4 204,158.4 204,156.9C204,155.9 203.7,152.7 199.9,152.7C192.6,152.7 187.9,167.8 187.9,178.4C187.9,186.2 189.3,189.5 195.8,189.5C200.4,189.5 204.7,187.6 206.9,183.8L208.3,184.3Z" style="fill:rgb(89,54,40);fill-rule:nonzero;"/>
                            <path d="M229.2,172.8C229.6,173.2 230.1,173.3 230.9,173.3C233.7,173.3 234.9,171.3 237.1,170.4L237.3,171.6C235.5,173.9 232.4,175.9 228.9,176.8C227.8,188.8 221.3,194.6 215.3,194.6C208.9,194.6 206.2,191.9 206.2,184.8C206.2,170.2 213.6,163.9 221.8,163.9C227.6,164.1 229,168.5 229.2,172.8ZM224.6,177.5C222.9,177.5 222.1,176.3 222.1,174.8C222.1,173.1 223.1,171.2 224.7,170.6C224.5,168.6 223.9,167.5 222.2,167.5C216.6,167.5 214.2,179.6 214.2,184.4C214.2,188 215.9,188.9 218.2,188.9C221.8,189 223.9,183.3 224.6,177.5Z" style="fill:rgb(89,54,40);fill-rule:nonzero;"/>
                            <path d="M219.5,202.8C219.5,197.3 224.1,195.6 229.8,193.9L236.9,159.9C238.7,151.4 243.8,149.8 247.7,149.8C250.4,149.8 252.9,151.2 254.1,153.5C256.5,150.5 259.6,149.8 262.3,149.8C265.9,149.8 269.3,152.4 269.3,156.2C269.3,157.2 269.2,157.9 269.1,158.6L266.3,158.6C266.4,158 266.4,157.5 266.4,157C266.4,155.6 265.3,155 264.1,155C262.8,155 260.9,155.7 260.1,159.7L259,164.6L264.9,164.6L264.4,167L258.5,167L251.8,199.1C250,207.6 244.9,209.2 241,209.2C237.6,209.2 235.5,207.7 234.6,205.5C232.3,208.5 229.1,209.2 226.5,209.2C222.8,209.3 219.5,206.7 219.5,202.8ZM225.5,204C226.7,204 228.3,202.9 229,199.4L229.7,195.9C226,197.1 223.1,198.8 223.1,202C223.1,202.8 224.2,204 225.5,204ZM239.6,204C240.7,204 242.3,202.9 243.1,199.4L244.5,192.6L238.4,193.7C237,200.5 236.6,201.8 236.1,202.8C236.7,203.7 238.1,204 239.6,204ZM238.7,192.2L244.8,191.1L249.9,167L244,167L238.7,192.2ZM249.6,155.1C248.3,155.1 246.4,155.8 245.6,159.8L244.5,164.7L250.4,164.7L251.4,160C251.6,159 251.9,158.1 251.9,157.1C251.9,155.7 250.8,155.1 249.6,155.1Z" style="fill:rgb(89,54,40);fill-rule:nonzero;"/>
                            <path d="M275.2,190.1C278.1,190.1 283.1,186.6 285.2,182.2L287.9,182.2C284.5,188.3 278.8,194.3 271.1,194.3C265.4,194.3 262.3,190 262.3,184.8C262.3,177.2 265.5,164 276.3,164C281.2,164 283.9,166 283.9,170.2C283.9,177.5 276.1,181.6 270.5,182.3C270.4,183.3 270.3,184.1 270.3,184.9C270.3,188.9 272.9,190.1 275.2,190.1ZM278.3,167.3C275,167.3 272.2,174 271,179.6C276.5,179.5 280.3,174.8 280.4,170.6C280.4,169.3 280.1,167.3 278.3,167.3Z" style="fill:rgb(89,54,40);fill-rule:nonzero;"/>
                            <path d="M282.9,184.9C282.9,177.3 286.1,164.1 296.9,164.1C301.8,164.1 304.5,166.1 304.5,170.3C304.5,177.6 296.7,181.7 291.1,182.4C291,183.4 290.9,184.2 290.9,185C290.9,188.9 292.9,190.1 295.2,190.1C298,190.1 300.4,188.5 302.8,186.3C302.8,192.7 297.6,194.4 291.7,194.4C286,194.4 282.9,190.1 282.9,184.9ZM298.9,167.3C295.6,167.3 292.8,174 291.6,179.6C297.1,179.5 300.9,174.8 301,170.6C301,169.3 300.7,167.3 298.9,167.3Z" style="fill:rgb(89,54,40);fill-rule:nonzero;"/>
                            <path d="M346,162.9C345,162.9 344.1,162.5 343.3,161.7C344.9,160.7 346,158.5 346,156.6C346,154.5 344.8,152.6 341.7,152.6C338.4,152.6 336.2,154.5 336.2,157.8C336.2,167.1 349.6,167.7 349.6,180.9C349.6,189.3 343.4,194.7 333.8,194.7C329,194.7 320.7,193.7 320.7,185.1C320.7,179.5 324.9,176.5 329.4,176.5C332.1,176.5 333.7,177.4 334.2,179.5C329.4,179.9 327.2,181.9 327.2,186C327.2,190 330.3,191.7 333.1,191.7C337.8,191.7 339.6,187.6 339.6,183.2C339.6,172 326.7,169.6 326.7,160.7C326.7,154.5 333.8,149.6 340.9,149.6C344.1,149.6 350.9,150.1 350.9,156.7C350.9,160.3 349.1,162.9 346,162.9Z" style="fill:rgb(89,54,40);fill-rule:nonzero;"/>
                            <path d="M376.1,184.9C375.9,185.6 375.8,186.3 375.8,186.8C375.8,188.1 376.5,189 378.8,189C381.2,189 384.3,185.7 386.7,183.8L388.7,183.8C386,186.5 379.2,194.4 374.6,194.4C370,194.4 367.2,192.4 367.2,187.9C367.2,186.9 367.3,186 367.6,184.9L369.9,174.2C370,173.7 370.1,173.1 370.1,172.7C370.1,170.6 369,169.2 367.4,169.2C366,169.2 364.9,169.6 363.7,170.4L358.6,194.4L350,194.4L358.6,153.9L367.4,152.7L364.2,167.8C366.6,166.1 369.4,164.6 371.9,164.6C375.1,164.6 378.7,168.1 378.7,172C378.7,172.5 378.7,173 378.6,173.4L376.1,184.9Z" style="fill:rgb(89,54,40);fill-rule:nonzero;"/>
                            <path d="M404,172.8C404.4,173.2 404.9,173.3 405.7,173.3C408.5,173.3 409.7,171.3 411.9,170.4L412.1,171.6C410.3,173.9 407.2,175.9 403.7,176.8C402.6,188.8 396.1,194.6 390.1,194.6C383.7,194.6 381,191.9 381,184.8C381,170.2 388.4,163.9 396.6,163.9C402.4,164.1 403.9,168.5 404,172.8ZM399.4,177.5C397.7,177.5 396.9,176.3 396.9,174.8C396.9,173.1 397.9,171.2 399.5,170.6C399.3,168.6 398.7,167.5 397,167.5C391.4,167.5 389,179.6 389,184.4C389,188 390.7,188.9 393,188.9C396.7,189 398.7,183.3 399.4,177.5Z" style="fill:rgb(89,54,40);fill-rule:nonzero;"/>
                            <path d="M419.4,164.7L419.2,165.8C420.4,165.1 421.9,164.7 423.4,164.7C429.6,164.7 432.5,166.9 432.5,173C432.5,174.2 432.4,175.6 432.1,177.2C430.3,190 425.1,194.3 419.1,194.3C417.1,194.3 415.3,193.6 413.5,192.5L410.4,207.1L401.4,209.2L410.9,164.6L419.4,164.7ZM424.4,177.9C424.9,175.3 425.2,173.3 425.2,171.9C425.2,168.3 423.8,167.6 421.9,167.6C420.8,167.6 419.6,168.1 418.5,168.8L414.2,188.8C415.6,189.9 417.1,189.9 418.1,189.9C421.1,189.9 422.5,187.4 424.4,177.9Z" style="fill:rgb(89,54,40);fill-rule:nonzero;"/>
                        </g>
                    </g>
                </g>
                <g transform="matrix(1,0,0,1,0,54)">
                    <g>
                        <g>
                            <g>
                                <g>
                                    <rect x="369.1" y="300.3" width="175.5" height="377.2" style="fill:rgb(140,89,69);"/>
                                    <g>
                                        <rect x="383.2" y="310.5" width="147.9" height="251.8" style="fill:rgb(89,54,40);"/>
                                        <rect x="391.6" y="321" width="131" height="230.9" style="fill:rgb(140,89,69);"/>
                                        <g>
                                            <rect x="399.5" y="332.1" width="115.2" height="208.6" style="fill:rgb(25,41,56);"/>
                                        </g>
                                    </g>
                                </g>
                            </g>
                            <g>
                                <rect x="382.5" y="571.2" width="147.9" height="96.1" style="fill:rgb(89,54,40);"/>
                                <rect x="391" y="579.3" width="131" height="79.9" style="fill:rgb(140,89,69);"/>
                            </g>
                        </g>
                        <g>
                            <circle cx="456.4" cy="412.8" r="4.1" style="fill:rgb(216,212,213);"/>
                            <g>
                                <g>
                                    <path d="M476.2,428.2L456.5,413.3L437.7,427.9L437.1,427.2L456.5,412.2L476.8,427.5L476.2,428.2Z" style="fill:rgb(193,185,188);fill-rule:nonzero;"/>
                                </g>
                                <path d="M484.8,440.7C484.8,444.3 481.8,447.3 478.2,447.3L435.6,447.3C432,447.3 429,444.3 429,440.7L429,432C429,428.4 432,425.4 435.6,425.4L478.2,425.4C481.8,425.4 484.8,428.4 484.8,432L484.8,440.7Z" style="fill:rgb(226,202,199);fill-rule:nonzero;"/>
                                <g>
                                    <path d="M443.6,429.3C444.6,429.3 445.4,429.7 446.1,430.4C446.8,431.1 447.1,431.9 447.1,432.9L447.1,441.1C447.1,442.1 446.7,442.9 446,443.6C445.3,444.3 444.5,444.6 443.5,444.6C442.5,444.6 441.7,444.2 441,443.5C440.3,442.8 440,442 440,441L440,432.8C440,431.8 440.3,431 441.1,430.3C441.7,429.7 442.6,429.3 443.6,429.3ZM444.8,432.8C444.8,432.4 444.7,432.1 444.4,431.9C444.2,431.7 443.8,431.5 443.5,431.5C443.1,431.5 442.8,431.6 442.6,431.9C442.3,432.2 442.2,432.5 442.2,432.8L442.2,441C442.2,441.4 442.3,441.7 442.6,441.9C442.9,442.1 443.2,442.3 443.5,442.3C443.9,442.3 444.2,442.2 444.4,441.9C444.7,441.7 444.8,441.3 444.8,441L444.8,432.8Z" style="fill:rgb(140,89,69);fill-rule:nonzero;"/>
                                    <path d="M452.7,429.5C453.8,429.5 454.7,429.8 455.3,430.5C455.9,431.2 456.2,432 456.2,433L456.2,435.2C456.2,436.2 455.9,437 455.2,437.7C454.5,438.4 453.7,438.8 452.7,438.8L451.4,438.8L451.4,444.4L449.1,444.4L449.1,429.4L452.7,429.5ZM454,433.1C454,432.7 453.9,432.4 453.6,432.2C453.4,432 453.1,431.8 452.7,431.8L451.3,431.8L451.3,436.6L452.7,436.6C453.1,436.6 453.4,436.5 453.6,436.2C453.8,435.9 454,435.6 454,435.3L454,433.1Z" style="fill:rgb(140,89,69);fill-rule:nonzero;"/>
                                    <path d="M458,444.6L458,429.5L464.4,429.5L464.4,431.8L460.2,431.8L460.2,435.9L463.2,435.9L463.2,438.2L460.2,438.2L460.2,442.3L464.4,442.3L464.4,444.6L458,444.6Z" style="fill:rgb(140,89,69);fill-rule:nonzero;"/>
                                    <path d="M468.5,429.5L471.5,439.6L471.5,429.5L473.8,429.5L473.8,444.5L471.4,444.5L468.3,434.9L468.3,444.5L466,444.5L466,429.5L468.5,429.5Z" style="fill:rgb(140,89,69);fill-rule:nonzero;"/>
                                </g>
                            </g>
                        </g>
                    </g>
                    <g>
                        <g>
                            <rect x="62.6" y="565.2" width="295.4" height="102.1" style="fill:rgb(170,117,80);"/>
                            <g>
                                <path d="M351.1,641.7L351.1,588.3C341.4,588.3 333.6,580.6 333.3,571.1L87.3,571.1C87,580.7 79.1,588.3 69.5,588.3L69.5,641.7C79.4,641.7 87.3,649.7 87.3,659.5C87.3,660.2 87.3,660.8 87.2,661.5L333.4,661.5C333.3,660.9 333.3,660.2 333.3,659.5C333.3,649.7 341.2,641.7 351.1,641.7Z" style="fill:rgb(188,149,122);fill-rule:nonzero;"/>
                            </g>
                        </g>
                        <g>
                            <g>
                                <g>
                                    <g>
                                        <rect x="62.6" y="334.5" width="295.4" height="217.3" style="fill:rgb(140,89,69);"/>
                                        <rect x="69.5" y="342.8" width="281.6" height="200.8" style="fill:rgb(25,41,56);"/>
                                    </g>
                                    <g>
                                        <g>
                                            <g>
                                                <path d="M172.8,468.3C172.4,465.8 171.9,464.2 171.9,464.2C169.2,472.6 149.5,473.3 144.4,473.3C138.3,473.3 119.6,472.9 116.8,464.5C116.8,464.5 112.3,478.1 121,490C128.9,500.8 141.9,501.1 144.6,501.1C147.4,501.1 160.3,500.7 168.1,489.7C168.8,488.7 169.4,487.8 169.9,486.8C169.9,486.8 181.8,489 182.1,477.4C182,468.3 172.8,468.3 172.8,468.3ZM177.2,478.8C177.2,478.8 176.7,483.4 171.8,482.4C172.9,479.1 173.2,476 173.2,473.3C178.1,473.7 177.2,478.8 177.2,478.8Z" style="fill:rgb(73,100,119);fill-rule:nonzero;"/>
                                            </g>
                                            <path d="M170.8,463.6C170.8,466 161.8,471.8 144.1,471.8C126.1,471.8 117.4,466 117.4,463.6C117.4,461.2 125.9,458.4 144.1,458.4C162.3,458.4 170.8,461.2 170.8,463.6Z" style="fill:rgb(73,100,119);fill-rule:nonzero;"/>
                                            <g>
                                                <path d="M146.6,460.1C146.6,460.1 152.1,452.8 150.7,448.2C149.7,444.9 146.4,443.8 146.5,436.5C146.5,436.5 145.2,442.4 147.6,448.3C149.7,453.7 146.6,460.1 146.6,460.1Z" style="fill:rgb(73,100,119);fill-rule:nonzero;"/>
                                                <path d="M141.8,441.8C141.8,441.8 147.4,449 146,453.7C145,457 141.7,458.2 141.9,465.4C141.9,465.4 140.5,459.5 142.8,453.6C144.9,448.1 141.8,441.8 141.8,441.8Z" style="fill:rgb(73,100,119);fill-rule:nonzero;"/>
                                            </g>
                                        </g>
                                        <g>
                                            <path d="M217.4,485.7C214.7,493.2 207.8,494.8 203,494.8C197.8,494.8 191.7,492.2 191.7,481.7C191.7,470.5 195.4,455.9 209,455.9C213.8,455.9 218,457.8 218,462.8C218,465.5 217,467.5 214.4,467.5C213.6,467.5 212.4,467.3 211.5,466.2C212.8,465.8 213.8,463.3 213.8,462C213.8,461.2 213.5,458.3 210.2,458.3C203.9,458.3 199.8,471.4 199.8,480.5C199.8,487.2 201,490.1 206.6,490.1C210.6,490.1 214.3,488.5 216.2,485.2L217.4,485.7Z" style="fill:rgb(73,100,119);fill-rule:nonzero;"/>
                                            <path d="M235.4,475.7C235.7,476 236.2,476.2 236.9,476.2C239.3,476.2 240.4,474.4 242.3,473.7L242.5,474.8C240.9,476.8 238.2,478.5 235.2,479.3C234.2,489.6 228.6,494.7 223.5,494.7C218,494.7 215.6,492.4 215.6,486.3C215.6,473.6 222,468.2 229.1,468.2C234.1,468.2 235.3,472 235.4,475.7ZM231.5,479.8C230,479.8 229.3,478.7 229.3,477.5C229.3,476 230.2,474.4 231.6,473.9C231.4,472.2 230.9,471.2 229.4,471.2C224.6,471.2 222.5,481.7 222.5,485.8C222.5,488.9 223.9,489.7 225.9,489.7C229.1,489.7 230.9,484.8 231.5,479.8Z" style="fill:rgb(73,100,119);fill-rule:nonzero;"/>
                                            <path d="M227.1,501.7C227.1,497 231.1,495.5 236,494L242.2,464.6C243.7,457.2 248.2,455.9 251.6,455.9C253.9,455.9 256.1,457.1 257.1,459.1C259.2,456.5 261.9,455.9 264.2,455.9C267.3,455.9 270.3,458.1 270.3,461.5C270.3,462.3 270.2,463 270.1,463.6L267.7,463.6C267.8,463.1 267.8,462.7 267.8,462.2C267.8,461 266.9,460.5 265.8,460.5C264.7,460.5 263.1,461.1 262.3,464.6L261.4,468.8L266.5,468.8L266,470.9L260.9,470.9L255.1,498.7C253.6,506.1 249.1,507.4 245.7,507.4C242.8,507.4 241,506.1 240.1,504.2C238.1,506.8 235.4,507.4 233.1,507.4C230,507.3 227.1,505.1 227.1,501.7ZM232.3,502.7C233.3,502.7 234.7,501.7 235.3,498.7L235.9,495.7C232.7,496.8 230.2,498.2 230.2,501C230.2,501.7 231.1,502.7 232.3,502.7ZM244.5,502.7C245.5,502.7 246.9,501.7 247.5,498.7L248.7,492.8L243.4,493.8C242.2,499.7 241.8,500.8 241.4,501.7C242,502.5 243.2,502.7 244.5,502.7ZM243.7,492.5L249,491.6L253.4,470.8L248.3,470.8L243.7,492.5ZM253.1,460.4C252,460.4 250.4,461 249.6,464.5L248.7,468.7L253.8,468.7L254.7,464.6C254.9,463.7 255.1,463 255.1,462.1C255.1,461 254.2,460.4 253.1,460.4Z" style="fill:rgb(73,100,119);fill-rule:nonzero;"/>
                                            <path d="M275.3,490.7C277.8,490.7 282.1,487.7 283.9,483.9L286.2,483.9C283.3,489.2 278.3,494.4 271.7,494.4C266.8,494.4 264.1,490.6 264.1,486.2C264.1,479.7 266.9,468.2 276.2,468.2C280.4,468.2 282.8,469.9 282.8,473.6C282.8,479.9 276.1,483.5 271.2,484.1C271.1,484.9 271,485.7 271,486.3C271.1,489.7 273.3,490.7 275.3,490.7ZM278,470.9C275.1,470.9 272.8,476.7 271.7,481.6C276.4,481.5 279.8,477.5 279.8,473.8C279.8,472.7 279.5,470.9 278,470.9Z" style="fill:rgb(73,100,119);fill-rule:nonzero;"/>
                                            <path d="M282,486.2C282,479.7 284.8,468.2 294.1,468.2C298.3,468.2 300.7,469.9 300.7,473.6C300.7,479.9 294,483.5 289.1,484.1C289,484.9 288.9,485.7 288.9,486.3C288.9,489.7 290.6,490.7 292.6,490.7C295,490.7 297.1,489.3 299.2,487.4C299.2,493 294.7,494.4 289.6,494.4C284.6,494.4 282,490.7 282,486.2ZM295.8,470.9C292.9,470.9 290.6,476.7 289.5,481.6C294.2,481.5 297.6,477.5 297.6,473.8C297.6,472.7 297.4,470.9 295.8,470.9Z" style="fill:rgb(73,100,119);fill-rule:nonzero;"/>
                                        </g>
                                    </g>
                                </g>
                                <path d="M117.9,536.4L340.3,536.4L340.3,408.7C340.3,408.7 294.9,531 117.9,536.4Z" style="fill:rgb(252,250,250);fill-opacity:0.2;fill-rule:nonzero;"/>
                            </g>
                            <g>
                                <rect x="59" y="332.1" width="302.6" height="72.7" style="fill:rgb(226,199,181);"/>
                                <g>
                                    <g>
                                        <g>
                                            <rect x="59" y="400.7" width="302.6" height="4.2" style="fill:rgb(214,180,157);"/>
                                            <rect x="59" y="392.4" width="302.6" height="4.2" style="fill:rgb(214,180,157);"/>
                                        </g>
                                        <g>
                                            <rect x="59" y="384.2" width="302.6" height="4.2" style="fill:rgb(214,180,157);"/>
                                            <rect x="59" y="375.9" width="302.6" height="4.2" style="fill:rgb(214,180,157);"/>
                                        </g>
                                    </g>
                                    <g>
                                        <g>
                                            <rect x="59" y="367.6" width="302.6" height="4.2" style="fill:rgb(214,180,157);"/>
                                            <rect x="59" y="359.3" width="302.6" height="4.2" style="fill:rgb(214,180,157);"/>
                                        </g>
                                        <g>
                                            <rect x="59" y="351.1" width="302.6" height="4.2" style="fill:rgb(214,180,157);"/>
                                            <rect x="59" y="342.8" width="302.6" height="4.2" style="fill:rgb(214,180,157);"/>
                                            <rect x="59" y="334.5" width="302.6" height="4.2" style="fill:rgb(214,180,157);"/>
                                        </g>
                                    </g>
                                </g>
                            </g>
                        </g>
                    </g>
                </g>
                <g transform="matrix(1,0,0,1,0,54)">
                    <path d="M24.3,232.7C24.3,232.7 1.7,293.4 0.4,298.5C-0.9,303.6 1.2,316.8 15.2,317C29.2,317.3 37,308.1 39.7,301.4C42.4,294.7 61.7,232.6 61.7,232.6L24.3,232.7Z" style="fill:rgb(89,54,40);fill-rule:nonzero;"/>
                    <path d="M40.2,299.8L0.1,299.8C-0.6,305.6 2.3,316.7 15.1,317C29.1,317.3 36.9,308.1 39.6,301.4C39.7,301.1 39.9,300.5 40.2,299.8Z" style="fill:rgb(122,72,54);fill-rule:nonzero;"/>
                    <path d="M61.6,232.7L99.4,232.7C99.4,232.7 80.4,302.3 78.3,306.9C76.2,311.5 69.8,319.6 54.7,318.5C39.7,317.4 39.3,302.9 41,297.9C42.6,292.8 61.6,232.7 61.6,232.7Z" style="fill:rgb(140,89,69);fill-rule:nonzero;"/>
                    <path d="M40.4,299.8C39.5,305.9 41.3,317.4 54.6,318.3C69.8,319.4 76.1,311.3 78.2,306.7C78.5,306 79.2,303.9 80.2,300.8L80.4,299.8L40.4,299.8Z" style="fill:rgb(160,99,80);fill-rule:nonzero;"/>
                    <path d="M99.4,232.7L136.8,232.7C136.8,232.7 121.2,303.7 120.7,305.4C120.2,307.1 113.8,317.8 99.4,318.5C85,319.2 78.1,308.2 80.4,300.3C83.7,289.2 99.4,232.7 99.4,232.7Z" style="fill:rgb(89,54,40);fill-rule:nonzero;"/>
                    <path d="M121.9,299.8L80.6,299.8C80.6,300 80.5,300.1 80.5,300.3C78.2,308.2 85.1,319.2 99.5,318.5C111.5,317.9 117.9,310.4 120,306.9L121.9,299.8Z" style="fill:rgb(122,72,54);fill-rule:nonzero;"/>
                    <path d="M136.9,232.7L173.4,232.7C173.4,232.7 162.9,299.1 161.3,305.4C159.7,311.7 151.1,320 136.8,318.5C122.6,317.1 120.4,306.8 121.9,300.3C123.6,292.6 136.9,232.7 136.9,232.7Z" style="fill:rgb(140,89,69);fill-rule:nonzero;"/>
                    <path d="M162.3,299.8L122,299.8C122,300 121.9,300.1 121.9,300.3C120.4,306.8 122.6,317 136.8,318.5C151,319.9 159.6,311.7 161.3,305.4C161.5,304.6 161.8,302.8 162.3,300.3L162.3,299.8Z" style="fill:rgb(160,99,80);fill-rule:nonzero;"/>
                    <path d="M173.4,232.7L211.6,232.7L203.6,304.5C203.6,304.5 196.3,319.8 179.7,318.6C163,317.4 161.7,304.8 162.4,300.4C163.1,295.9 173.4,232.7 173.4,232.7Z" style="fill:rgb(89,54,40);fill-rule:nonzero;"/>
                    <path d="M179.6,318.5C195.3,319.6 202.6,306.1 203.5,304.5L203.5,300.3L162.4,300.3C161.6,304.7 163,317.3 179.6,318.5Z" style="fill:rgb(122,72,54);fill-rule:nonzero;"/>
                    <path d="M210.6,232.7L248.6,232.7L243.6,307.1C243.6,307.1 236.1,320.1 221.3,318.6C206.5,317.1 202.9,307.3 203.6,302.8C204.2,298.3 210.6,232.7 210.6,232.7Z" style="fill:rgb(140,89,69);fill-rule:nonzero;"/>
                    <path d="M203.8,300.3C203.7,301.5 203.6,302.4 203.5,302.8C202.8,307.3 206.4,317 221.2,318.6C236,320.1 243.5,307.1 243.5,307.1L244,300.3L203.8,300.3Z" style="fill:rgb(160,99,80);fill-rule:nonzero;"/>
                    <path d="M248.6,232.7L286.3,232.7L284.2,305.4C284.2,305.4 277.9,318.4 262.1,317.6C246.3,316.8 243.7,305.4 243.7,305.4L248.6,232.7Z" style="fill:rgb(89,54,40);fill-rule:nonzero;"/>
                    <path d="M284.2,300.3L244,300.3L243.8,305.8C244.5,308 248.2,316.8 262.1,317.5C277.9,318.3 284.2,305.3 284.2,305.3L284.2,300.3Z" style="fill:rgb(122,72,54);fill-rule:nonzero;"/>
                    <path d="M286.3,232.7L323.1,232.7L325,305.4C325,305.4 324,317.1 305,317.6C286,318.1 284.2,304.1 284.2,304.1L286.3,232.7Z" style="fill:rgb(140,89,69);fill-rule:nonzero;"/>
                    <path d="M324.8,306.3L324.4,300.3L284.2,300.3L284.1,304.1C284.1,304.1 285.9,318.1 304.9,317.6C320.7,317.2 324.1,309.2 324.8,306.3Z" style="fill:rgb(160,99,80);fill-rule:nonzero;"/>
                    <path d="M323.1,232.7L362.1,232.7L366.1,305.4C366.1,305.4 363.7,317.4 347.3,317.6C330.9,317.8 325.1,307.4 325,303.9C324.8,300.3 323.1,232.7 323.1,232.7Z" style="fill:rgb(89,54,40);fill-rule:nonzero;"/>
                    <path d="M366,305.7L365.9,302.7L365.8,300.2L324.9,300.2C325,302.1 325,303.3 325,303.8C325.1,307.4 330.9,317.8 347.3,317.5C362,317.4 365.4,307.7 366,305.7Z" style="fill:rgb(122,72,54);fill-rule:nonzero;"/>
                    <path d="M362.1,232.7L398.9,232.7L407.5,305.4C407.5,305.4 401.9,318.3 387.1,317.7C372.3,317.1 369.1,310.5 366.1,305.4L362.1,232.7Z" style="fill:rgb(140,89,69);fill-rule:nonzero;"/>
                    <path d="M407.2,305.9L406.9,300.3L365.8,300.3L366.1,305.4C369.1,310.5 372.3,317.1 387.1,317.7C400,318.2 406,308.3 407.2,305.9Z" style="fill:rgb(160,99,80);fill-rule:nonzero;"/>
                    <path d="M398.9,232.7L437,232.7L448.3,305.4C448.3,305.4 445.7,316.2 431.9,317.6C414.2,319.5 407.4,305.4 407.4,305.4L398.9,233.6" style="fill:rgb(89,54,40);fill-rule:nonzero;"/>
                    <path d="M448.3,305.4L447.5,300.4L406.8,300.4L407.4,305.5C407.4,305.5 414.1,319.6 431.9,317.7C445.8,316.2 448.3,305.4 448.3,305.4Z" style="fill:rgb(122,72,54);fill-rule:nonzero;"/>
                    <path d="M437,232.7L473.3,232.7L489.4,305.4C489.4,305.4 486.7,317.5 473,317.8C459.3,318.1 448.8,308.6 448.3,305.4L437,232.7Z" style="fill:rgb(140,89,69);fill-rule:nonzero;"/>
                    <path d="M488.3,300.3L447.5,300.3L448.5,305.9C450,309.6 460.1,318.1 473,317.7C486.7,317.4 489.4,305.3 489.4,305.3L488.3,300.3Z" style="fill:rgb(160,99,80);fill-rule:nonzero;"/>
                    <path d="M473.3,232.7L511.6,232.7L530,305.4C530,305.4 530,317.8 513.1,317.8C495.6,317.8 489.4,305.4 489.4,305.4L473.3,232.7Z" style="fill:rgb(89,54,40);fill-rule:nonzero;"/>
                    <path d="M528.7,300.3L488.3,300.3L489.4,305.4C489.4,305.4 495.6,317.8 513.1,317.8C530,317.8 530,305.4 530,305.4L528.7,300.3Z" style="fill:rgb(122,72,54);fill-rule:nonzero;"/>
                    <path d="M511.6,232.7L548,232.7L571.4,305.4C571.4,305.4 573,317.8 553.9,317.8C536.4,317.8 530,305.4 530,305.4L511.6,232.7Z" style="fill:rgb(140,89,69);fill-rule:nonzero;"/>
                    <path d="M571.4,305.4L569.8,300.3L528.8,300.3L530.1,305.3C530.1,305.3 536.6,317.7 554,317.7C573,317.8 571.4,305.4 571.4,305.4Z" style="fill:rgb(160,99,80);fill-rule:nonzero;"/>
                    <path d="M548,232.7L587.2,232.7L611.9,303.6C611.9,303.6 612.8,316.4 598.1,317.8C579.9,319.5 571.3,305.4 571.3,305.4L548,232.7Z" style="fill:rgb(89,54,40);fill-rule:nonzero;"/>
                    <path d="M598.2,317.8C612.9,316.4 612,303.6 612,303.6L610.9,300.3L569.8,300.3L571.4,305.4C571.4,305.4 580,319.5 598.2,317.8Z" style="fill:rgb(122,72,54);fill-rule:nonzero;"/>
                </g>
            </g>
        </g>
    </g>
</svg>
