<svg width="24" height="15" viewBox="0 0 24 15" fill="none" xmlns="http://www.w3.org/2000/svg">
<path fill-rule="evenodd" clip-rule="evenodd" d="M22.6513 2.22222V9.55556C22.6513 10.2306 22.114 10.7778 21.4513 10.7778H14.2513C13.5885 10.7778 13.0513 10.2306 13.0513 9.55556V2.22222C13.0513 1.5472 13.5885 1 14.2513 1H21.4513C22.114 1 22.6513 1.5472 22.6513 2.22222Z" stroke="#A09186" stroke-width="2"/>
<path fill-rule="evenodd" clip-rule="evenodd" d="M10.6 5.22222V12.5556C10.6 13.2306 10.0627 13.7778 9.4 13.7778H2.2C1.53725 13.7778 1 13.2306 1 12.5556V5.22222C1 4.5472 1.53725 4 2.2 4H9.4C10.0627 4 10.6 4.5472 10.6 5.22222Z" stroke="#A09186" stroke-width="2"/>
</svg>
