<svg width="24" height="25" viewBox="0 0 24 25" fill="none" xmlns="http://www.w3.org/2000/svg">
<path fill-rule="evenodd" clip-rule="evenodd" d="M14 14.5926C13.9068 14.5926 13.8 14.6747 13.8 14.8148V22.1481C13.8 22.2883 13.9068 22.3704 14 22.3704H21.2C21.2932 22.3704 21.4 22.2883 21.4 22.1481V14.8148C21.4 14.6747 21.2932 14.5926 21.2 14.5926H14ZM11.8 14.8148C11.8 13.6049 12.7677 12.5926 14 12.5926H21.2C22.4323 12.5926 23.4 13.6049 23.4 14.8148V22.1481C23.4 23.3581 22.4323 24.3704 21.2 24.3704H14C12.7677 24.3704 11.8 23.3581 11.8 22.1481V14.8148ZM2.2 14.5926C2.10675 14.5926 2 14.6747 2 14.8148V22.1481C2 22.2883 2.10675 22.3704 2.2 22.3704H9.4C9.49325 22.3704 9.6 22.2883 9.6 22.1481V14.8148C9.6 14.6747 9.49325 14.5926 9.4 14.5926H2.2ZM0 14.8148C0 13.6049 0.967746 12.5926 2.2 12.5926H9.4C10.6323 12.5926 11.6 13.6049 11.6 14.8148V22.1481C11.6 23.3581 10.6323 24.3704 9.4 24.3704H2.2C0.967746 24.3704 0 23.3581 0 22.1481V14.8148ZM8.5999 2C8.50666 2 8.3999 2.08211 8.3999 2.22222V9.55556C8.3999 9.69567 8.50666 9.77778 8.5999 9.77778H15.7999C15.8931 9.77778 15.9999 9.69567 15.9999 9.55556V2.22222C15.9999 2.08211 15.8931 2 15.7999 2H8.5999ZM6.3999 2.22222C6.3999 1.01229 7.36765 0 8.5999 0H15.7999C17.0322 0 17.9999 1.01229 17.9999 2.22222V9.55556C17.9999 10.7655 17.0322 11.7778 15.7999 11.7778H8.5999C7.36765 11.7778 6.3999 10.7655 6.3999 9.55556V2.22222Z" fill="#A09186"/>
</svg>
