<svg width="36" height="43" viewBox="0 0 36 43" fill="none" xmlns="http://www.w3.org/2000/svg">
<path fill-rule="evenodd" clip-rule="evenodd" d="M31.4327 11.6476H2.30902V7.84594H33.3551V11.6476H31.4327ZM29.2221 19.4126H6.34605L5.28876 13.2653H30.2794L29.2221 19.4126ZM26.9153 32.8397H8.65287L6.6344 21.0304H29.0298L26.9153 32.8397ZM25.5696 41.2519H9.99854L8.84512 34.5383H26.6269L25.5696 41.2519ZM7.21106 4.93405L27.4919 1.77949V6.22822H7.21106V4.93405ZM33.259 6.22822H29.3182V0.80886C29.3182 0.323544 28.9337 0 28.357 0C28.2609 0 28.2609 0 28.1647 0L6.05766 3.4781C5.57708 3.55898 5.28872 3.88253 5.28872 4.28696V6.22822H2.30907C1.25178 6.22822 0.386719 6.9562 0.386719 7.84594V11.7285C0.386719 12.6182 1.25178 13.3462 2.30907 13.3462H3.36637L8.26837 42.2225C8.36449 42.6269 8.74896 42.9505 9.22955 42.9505H26.3385C26.8191 42.9505 27.2036 42.6269 27.2997 42.2225L32.2017 13.2653H33.259C34.3163 13.2653 35.1813 12.5373 35.1813 11.6476V7.84594C35.1813 6.9562 34.3163 6.22822 33.259 6.22822Z" fill="#A09186"/>
</svg>
