<svg width="25" height="26" viewBox="0 0 25 26" fill="none" xmlns="http://www.w3.org/2000/svg">
<path fill-rule="evenodd" clip-rule="evenodd" d="M1.35695 3.26155V1.35689H23.2718V3.26155H1.35695ZM20.3544 8.74277H4.20659L3.46027 4.40347H21.1007L20.3544 8.74277ZM18.7259 18.2207H5.83485L4.41005 9.88469H20.2186L18.7259 18.2207ZM17.7761 24.1587H6.7848L5.97063 19.4197H18.5225L17.7761 24.1587ZM1.35696 0.214966C0.61063 0.214966 0 0.72883 0 1.35689V3.31865C0 3.9467 0.61063 4.46057 1.35696 4.46057H2.10328L5.56352 24.8438C5.63137 25.1293 5.90276 25.3577 6.242 25.3577H18.3189C18.6582 25.3577 18.9295 25.1293 18.9974 24.8438L22.4576 4.40347H23.204C23.9503 4.40347 24.5609 3.88961 24.5609 3.26155V1.35689C24.5609 0.72883 23.9503 0.214966 23.204 0.214966H1.35696Z" fill="#A09186"/>
</svg>
