<?xml version="1.0" encoding="UTF-8"?>
<svg width="140px" height="164px" viewBox="0 0 140 164" version="1.1" xmlns="http://www.w3.org/2000/svg" xmlns:xlink="http://www.w3.org/1999/xlink">
    <title>logo</title>
    <defs>
        <polygon id="path-1" points="0 0.235447859 115.919723 0.235447859 115.919723 68.2622205 0 68.2622205"></polygon>
    </defs>
    <g id="Page-1" stroke="none" stroke-width="1" fill="none" fill-rule="evenodd">
        <g id="01_splash" transform="translate(-118.000000, -314.000000)">
            <g id="logo" transform="translate(118.000000, 314.000000)">
                <g id="Group" transform="translate(23.000000, 0.000000)">
                    <g id="Group-4" transform="translate(0.000000, 48.561121)">
                        <mask id="mask-2" fill="white">
                            <use xlink:href="#path-1"></use>
                        </mask>
                        <g id="Clip-2"></g>
                        <path d="M47.2222785,65.9254005 C22.5539241,65.9254005 2.34936709,42.1451668 2.34936709,12.9496322 L2.34936709,2.58992645 L91.8602532,2.58992645 L91.8602532,12.9496322 C91.8602532,42.1451668 71.8906329,65.9254005 47.2222785,65.9254005" id="Fill-1" fill="#B98068" mask="url(#mask-2)"></path>
                        <path d="M110.65519,20.013068 C107.835949,29.9018781 97.0288608,35.5526267 89.5108861,37.2007617 C92.5650633,29.6664302 94.2096203,21.4257552 94.2096203,13.1850801 L94.2096203,5.1798529 L101.962532,5.1798529 C104.781772,5.1798529 107.601013,6.59254005 109.24557,8.94701864 C111.36,12.0078408 112.06481,16.2459023 110.65519,20.013068 Z M89.5108861,12.9496322 C89.5108861,40.9679275 70.4810127,63.5709219 46.9873418,63.5709219 C23.4936709,63.5709219 4.69873418,40.9679275 4.69873418,12.9496322 L4.69873418,4.94440504 L89.5108861,4.94440504 L89.5108861,12.9496322 Z M101.962532,0.235447859 L2.34936709,0.235447859 C0.939746835,0.235447859 0,1.17723929 0,2.58992645 L0,12.9496322 C0,43.5578539 21.1443038,68.2798791 47.2222785,68.2798791 C64.1377215,68.2798791 78.9387342,57.6847254 87.161519,42.1451668 C95.6192405,41.4388232 111.125063,35.3171788 115.118987,21.1903073 C116.763544,16.0104544 115.823797,10.3597058 112.76962,5.88619647 C110.185316,2.35447859 106.191392,0.470895718 101.962532,0.235447859 L101.962532,0.235447859 Z" id="Fill-3" fill="#FFFFFF" mask="url(#mask-2)"></path>
                    </g>
                    <path d="M39.2344304,43.6167159 C40.6440506,43.6167159 41.5837975,42.6749244 41.5837975,41.2622373 L41.5837975,16.0693164 C41.5837975,14.6566292 40.6440506,13.7148378 39.2344304,13.7148378 C37.8248101,13.7148378 36.8850633,14.6566292 36.8850633,16.0693164 L36.8850633,41.2622373 C36.8850633,42.4394766 37.8248101,43.6167159 39.2344304,43.6167159" id="Fill-5" fill="#FFFFFF"></path>
                    <path d="M54.9751899,43.6167159 C56.3848101,43.6167159 57.324557,42.6749244 57.324557,41.2622373 L57.324557,2.41334055 C57.324557,1.0006534 56.3848101,0.0588619647 54.9751899,0.0588619647 C53.5655696,0.0588619647 52.6258228,1.0006534 52.6258228,2.41334055 L52.6258228,41.2622373 C52.6258228,42.4394766 53.8005063,43.6167159 54.9751899,43.6167159" id="Fill-6" fill="#FFFFFF"></path>
                </g>
                <path d="M35.0488281,145.009766 C33.3398352,145.009766 32.0166063,145.651849 31.0791016,146.936035 C30.1415969,148.220221 29.6728516,150.009754 29.6728516,152.304688 C29.6728516,157.080102 31.4648258,159.467773 35.0488281,159.467773 C36.5527419,159.467773 38.3740127,159.091801 40.5126953,158.339844 L40.5126953,162.148438 C38.754874,162.880863 36.792003,163.24707 34.6240234,163.24707 C31.5087735,163.24707 29.1259848,162.302256 27.4755859,160.412598 C25.8251871,158.52294 25,155.810565 25,152.275391 C25,150.048817 25.4052694,148.098153 26.2158203,146.42334 C27.0263712,144.748527 28.1909104,143.46436 29.7094727,142.570801 C31.2280349,141.677242 33.0078023,141.230469 35.0488281,141.230469 C37.1289167,141.230469 39.2187395,141.733393 41.3183594,142.739258 L39.8535156,146.430664 C39.0527304,146.049803 38.2470744,145.717775 37.4365234,145.43457 C36.6259725,145.151366 35.830082,145.009766 35.0488281,145.009766 Z M47.0347002,154.736328 C47.0347002,156.35743 47.3008108,157.583004 47.83304,158.413086 C48.3652693,159.243168 49.2319598,159.658203 50.4331377,159.658203 C51.6245499,159.658203 52.4814749,159.24561 53.0039385,158.42041 C53.526402,157.595211 53.7876299,156.367196 53.7876299,154.736328 C53.7876299,153.115226 53.5239606,151.899418 52.9966143,151.088867 C52.4692679,150.278316 51.6050187,149.873047 50.4038408,149.873047 C49.2124286,149.873047 48.3530622,150.275875 47.8257158,151.081543 C47.2983694,151.887211 47.0347002,153.105461 47.0347002,154.736328 Z M58.3579424,154.736328 C58.3579424,157.402357 57.6548244,159.487297 56.2485674,160.991211 C54.8423103,162.495125 52.8843221,163.24707 50.3745439,163.24707 C48.8022705,163.24707 47.4155656,162.902835 46.2143877,162.214355 C45.0132098,161.525875 44.0903675,160.537116 43.445833,159.248047 C42.8012985,157.958978 42.4790361,156.455087 42.4790361,154.736328 C42.4790361,152.060533 43.1772713,149.980476 44.5737627,148.496094 C45.970254,147.011711 47.933125,146.269531 50.4624346,146.269531 C52.034708,146.269531 53.4214129,146.611325 54.6225908,147.294922 C55.8237687,147.978519 56.746611,148.959955 57.3911455,150.239258 C58.03568,151.518561 58.3579424,153.01757 58.3579424,154.736328 Z M69.860416,149.931641 L65.9932285,149.931641 L65.9932285,162.954102 L61.5254551,162.954102 L61.5254551,149.931641 L59.0645176,149.931641 L59.0645176,147.77832 L61.5254551,146.577148 L61.5254551,145.375977 C61.5254551,143.510733 61.9844348,142.148442 62.9024082,141.289062 C63.8203815,140.429683 65.2900934,140 67.3115879,140 C68.8545643,140 70.2266209,140.22949 71.4277988,140.688477 L70.2852207,143.969727 C69.3867787,143.686522 68.5567089,143.544922 67.7949863,143.544922 C67.1602175,143.544922 66.7012377,143.732908 66.4180332,144.108887 C66.1348286,144.484865 65.9932285,144.965817 65.9932285,145.551758 L65.9932285,146.577148 L69.860416,146.577148 L69.860416,149.931641 Z M81.4766269,149.931641 L77.6094394,149.931641 L77.6094394,162.954102 L73.141666,162.954102 L73.141666,149.931641 L70.6807285,149.931641 L70.6807285,147.77832 L73.141666,146.577148 L73.141666,145.375977 C73.141666,143.510733 73.6006458,142.148442 74.5186191,141.289062 C75.4365925,140.429683 76.9063043,140 78.9277988,140 C80.4707753,140 81.8428319,140.22949 83.0440098,140.688477 L81.9014316,143.969727 C81.0029896,143.686522 80.1729198,143.544922 79.4111973,143.544922 C78.7764285,143.544922 78.3174487,143.732908 78.0342441,144.108887 C77.7510396,144.484865 77.6094394,144.965817 77.6094394,145.551758 L77.6094394,146.577148 L81.4766269,146.577148 L81.4766269,149.931641 Z M89.5660146,149.448242 C88.6187443,149.448242 87.8765642,149.748532 87.3394521,150.349121 C86.8023401,150.94971 86.494726,151.801752 86.4166006,152.905273 L92.6861318,152.905273 C92.6666005,151.801752 92.3785174,150.94971 91.821874,150.349121 C91.2652306,149.748532 90.513285,149.448242 89.5660146,149.448242 Z M90.1958974,163.24707 C87.5591655,163.24707 85.4986392,162.519539 84.0142568,161.064453 C82.5298744,159.609368 81.7876943,157.548841 81.7876943,154.882812 C81.7876943,152.138658 82.4737226,150.017097 83.8457998,148.518066 C85.217877,147.019035 87.1148306,146.269531 89.5367178,146.269531 C91.8511824,146.269531 93.6529222,146.928704 94.9419912,148.24707 C96.2310601,149.565436 96.8755849,151.386707 96.8755849,153.710938 L96.8755849,155.878906 L86.3140615,155.878906 C86.3628899,157.148444 86.7388627,158.139645 87.4419912,158.852539 C88.1451197,159.565433 89.131438,159.921875 90.4009756,159.921875 C91.3873086,159.921875 92.3199165,159.819337 93.1988271,159.614258 C94.0777378,159.409179 94.9956973,159.082033 95.9527334,158.632812 L95.9527334,162.089844 C95.1714795,162.480471 94.3365269,162.770995 93.4478506,162.961426 C92.5591742,163.151856 91.4752007,163.24707 90.1958974,163.24707 Z M106.048957,149.448242 C105.101687,149.448242 104.359507,149.748532 103.822395,150.349121 C103.285282,150.94971 102.977668,151.801752 102.899543,152.905273 L109.169074,152.905273 C109.149543,151.801752 108.86146,150.94971 108.304816,150.349121 C107.748173,149.748532 106.996227,149.448242 106.048957,149.448242 Z M106.67884,163.24707 C104.042108,163.24707 101.981582,162.519539 100.497199,161.064453 C99.0128168,159.609368 98.2706367,157.548841 98.2706367,154.882812 C98.2706367,152.138658 98.956665,150.017097 100.328742,148.518066 C101.700819,147.019035 103.597773,146.269531 106.01966,146.269531 C108.334125,146.269531 110.135865,146.928704 111.424934,148.24707 C112.714003,149.565436 113.358527,151.386707 113.358527,153.710938 L113.358527,155.878906 L102.797004,155.878906 C102.845832,157.148444 103.221805,158.139645 103.924934,158.852539 C104.628062,159.565433 105.61438,159.921875 106.883918,159.921875 C107.870251,159.921875 108.802859,159.819337 109.68177,159.614258 C110.56068,159.409179 111.47864,159.082033 112.435676,158.632812 L112.435676,162.089844 C111.654422,162.480471 110.819469,162.770995 109.930793,162.961426 C109.042117,163.151856 107.958143,163.24707 106.67884,163.24707 Z" id="CoffeeTEK" fill="#FFFFFF"></path>
                <rect id="Rectangle-2" fill="#FFFFFF" x="0" y="127" width="140" height="5" rx="2.5"></rect>
            </g>
        </g>
    </g>
</svg>